SplineFontDB: 3.2
FontName: brp
FullName: brp
FamilyName: brp
Weight: Book
Copyright: BRP Font comprised of open source font data
Version: 001.000
ItalicAngle: 0
UnderlinePosition: -253
UnderlineWidth: 51
Ascent: 819
Descent: 205
InvalidEm: 0
sfntRevision: 0x00010000
LayerCount: 2
Layer: 0 1 "Back" 1
Layer: 1 1 "Fore" 0
XUID: [1021 460 -500848752 2785050]
StyleMap: 0x0000
FSType: 0
OS2Version: 4
OS2_WeightWidthSlopeOnly: 0
OS2_UseTypoMetrics: 1
CreationTime: 1522988855
ModificationTime: 1660385390
PfmFamily: 17
TTFWeight: 400
TTFWidth: 5
LineGap: 92
VLineGap: 0
Panose: 2 0 5 3 0 0 0 0 0 0
OS2TypoAscent: 819
OS2TypoAOffset: 0
OS2TypoDescent: -205
OS2TypoDOffset: 0
OS2TypoLinegap: 92
OS2WinAscent: 868
OS2WinAOffset: 0
OS2WinDescent: 145
OS2WinDOffset: 0
HheadAscent: 868
HheadAOffset: 0
HheadDescent: -145
HheadDOffset: 0
OS2SubXSize: 666
OS2SubYSize: 716
OS2SubXOff: 0
OS2SubYOff: 143
OS2SupXSize: 666
OS2SupYSize: 716
OS2SupXOff: 0
OS2SupYOff: 490
OS2StrikeYSize: 50
OS2StrikeYPos: 264
OS2CapHeight: 762
OS2XHeight: 762
OS2Vendor: 'PfEd'
OS2CodePages: 00000001.00000000
OS2UnicodeRanges: 80000023.0000000a.00000000.00000000
MarkAttachClasses: 1
DEI: 91125
ShortTable: maxp 16
  1
  0
  123
  72
  12
  0
  0
  2
  0
  1
  1
  0
  64
  0
  0
  0
EndShort
LangName: 1033 "" "" "Regular" "FontForge 2.0 : BRP : 2022-08-13"
GaspTable: 1 65535 2 0
Encoding: UnicodeBmp
UnicodeInterp: none
NameList: AGL For New Fonts
DisplaySize: -48
AntiAlias: 1
FitToEm: 0
WinInfo: 38 38 16
BeginPrivate: 0
EndPrivate
BeginChars: 65539 123

StartChar: .notdef
Encoding: 65536 -1 0
Width: 512
GlyphClass: 1
Flags: W
LayerCount: 2
Fore
SplineSet
51 0 m 1,0,-1
 51 546 l 1,1,-1
 461 546 l 1,2,-1
 461 0 l 1,3,-1
 51 0 l 1,0,-1
102 51 m 1,4,-1
 410 51 l 1,5,-1
 410 495 l 1,6,-1
 102 495 l 1,7,-1
 102 51 l 1,4,-1
EndSplineSet
Validated: 1
EndChar

StartChar: exclam
Encoding: 33 33 4
Width: 640
GlyphClass: 2
Flags: W
LayerCount: 2
Fore
SplineSet
242 71 m 1,0,-1
 371 71 l 1,1,-1
 371 -44 l 1,2,-1
 242 -44 l 1,3,-1
 242 71 l 1,0,-1
248 153 m 1,4,-1
 248 344 l 1,5,-1
 309 418 l 1,6,-1
 374 358 l 1,7,-1
 371 148 l 1,8,-1
 312 83 l 1,9,-1
 248 153 l 1,4,-1
248 538 m 1,10,-1
 248 729 l 1,11,-1
 309 803 l 1,12,-1
 374 743 l 1,13,-1
 371 533 l 1,14,-1
 312 467 l 1,15,-1
 248 538 l 1,10,-1
EndSplineSet
Validated: 1
EndChar

StartChar: quotedbl
Encoding: 34 34 5
Width: 640
GlyphClass: 2
Flags: W
LayerCount: 2
Fore
SplineSet
163 557 m 1,0,-1
 163 748 l 1,1,-1
 224 821 l 1,2,-1
 289 761 l 1,3,-1
 286 551 l 1,4,-1
 227 486 l 1,5,-1
 163 557 l 1,0,-1
374 552 m 1,6,-1
 374 743 l 1,7,-1
 435 816 l 1,8,-1
 500 756 l 1,9,-1
 497 546 l 1,10,-1
 438 481 l 1,11,-1
 374 552 l 1,6,-1
EndSplineSet
Validated: 1
EndChar

StartChar: numbersign
Encoding: 35 35 6
Width: 640
GlyphClass: 2
Flags: W
LayerCount: 2
Fore
SplineSet
473 283 m 1,0,-1
 582 283 l 1,1,-1
 624 242 l 1,2,-1
 590 199 l 1,3,-1
 470 202 l 1,4,-1
 432 240 l 1,5,-1
 473 283 l 1,0,-1
468 543 m 1,6,-1
 577 543 l 1,7,-1
 619 503 l 1,8,-1
 585 460 l 1,9,-1
 464 462 l 1,10,-1
 427 501 l 1,11,-1
 468 543 l 1,6,-1
260 281 m 1,12,-1
 369 281 l 1,13,-1
 411 240 l 1,14,-1
 377 197 l 1,15,-1
 257 199 l 1,16,-1
 219 238 l 1,17,-1
 260 281 l 1,12,-1
258 543 m 1,18,-1
 367 543 l 1,19,-1
 409 503 l 1,20,-1
 375 460 l 1,21,-1
 255 462 l 1,22,-1
 217 501 l 1,23,-1
 258 543 l 1,18,-1
40 277 m 1,24,-1
 149 277 l 1,25,-1
 191 236 l 1,26,-1
 157 193 l 1,27,-1
 37 195 l 1,28,-1
 -1 234 l 1,29,-1
 40 277 l 1,24,-1
54 543 m 1,30,-1
 163 543 l 1,31,-1
 205 503 l 1,32,-1
 171 460 l 1,33,-1
 51 462 l 1,34,-1
 13 501 l 1,35,-1
 54 543 l 1,30,-1
185 54 m 1,36,-1
 185 180 l 1,37,-1
 220 229 l 1,38,-1
 257 189 l 1,39,-1
 255 50 l 1,40,-1
 222 7 l 1,41,-1
 185 54 l 1,36,-1
375 47 m 1,42,-1
 375 174 l 1,43,-1
 410 222 l 1,44,-1
 447 183 l 1,45,-1
 445 43 l 1,46,-1
 412 0 l 1,47,-1
 375 47 l 1,42,-1
187 305 m 1,48,-1
 187 431 l 1,49,-1
 222 480 l 1,50,-1
 259 440 l 1,51,-1
 257 301 l 1,52,-1
 223 258 l 1,53,-1
 187 305 l 1,48,-1
376 298 m 1,54,-1
 376 425 l 1,55,-1
 412 474 l 1,56,-1
 449 434 l 1,57,-1
 447 295 l 1,58,-1
 413 251 l 1,59,-1
 376 298 l 1,54,-1
184 574 m 1,60,-1
 184 701 l 1,61,-1
 219 749 l 1,62,-1
 256 710 l 1,63,-1
 255 571 l 1,64,-1
 221 527 l 1,65,-1
 184 574 l 1,60,-1
374 568 m 1,66,-1
 374 694 l 1,67,-1
 409 743 l 1,68,-1
 446 703 l 1,69,-1
 445 564 l 1,70,-1
 411 521 l 1,71,-1
 374 568 l 1,66,-1
EndSplineSet
Validated: 1
EndChar

StartChar: dollar
Encoding: 36 36 7
Width: 640
GlyphClass: 2
Flags: W
LayerCount: 2
Fore
SplineSet
460 177 m 1,0,-1
 459 331 l 1,1,-1
 514 398 l 1,2,-1
 587 328 l 1,3,-1
 589 193 l 1,4,-1
 530 119 l 1,5,-1
 460 177 l 1,0,-1
43 501 m 1,6,-1
 40 630 l 1,7,-1
 101 713 l 1,8,-1
 166 645 l 1,9,-1
 168 515 l 1,10,-1
 102 450 l 1,11,-1
 43 501 l 1,6,-1
252 868 m 1,12,-1
 369 868 l 1,13,-1
 369 808 l 1,14,-1
 517 810 l 1,15,-1
 590 749 l 1,16,-1
 530 684 l 1,17,-1
 369 683 l 1,18,-1
 369 494 l 1,19,-1
 394 494 l 1,20,-1
 465 427 l 1,21,-1
 407 357 l 1,22,-1
 369 357 l 1,23,-1
 369 125 l 1,24,-1
 428 126 l 1,25,-1
 501 64 l 1,26,-1
 441 0 l 1,27,-1
 369 0 l 1,28,-1
 369 -59 l 1,29,-1
 252 -59 l 1,30,-1
 252 0 l 1,31,-1
 113 0 l 1,32,-1
 47 58 l 1,33,-1
 118 123 l 1,34,-1
 252 124 l 1,35,-1
 252 359 l 1,36,-1
 206 360 l 1,37,-1
 144 423 l 1,38,-1
 212 494 l 1,39,-1
 252 494 l 1,40,-1
 252 682 l 1,41,-1
 179 682 l 1,42,-1
 114 740 l 1,43,-1
 185 805 l 1,44,-1
 252 806 l 1,45,-1
 252 868 l 1,12,-1
EndSplineSet
Validated: 1
EndChar

StartChar: percent
Encoding: 37 37 8
Width: 640
GlyphClass: 2
Flags: W
LayerCount: 2
Fore
SplineSet
383 479 m 1,0,-1
 521 612 l 1,1,-1
 616 619 l 1,2,-1
 618 531 l 1,3,-1
 465 387 l 1,4,-1
 377 383 l 1,5,-1
 383 479 l 1,0,-1
26 93 m 1,6,-1
 163 226 l 1,7,-1
 258 233 l 1,8,-1
 260 145 l 1,9,-1
 107 1 l 1,10,-1
 19 -2 l 1,11,-1
 26 93 l 1,6,-1
117 617 m 1,12,-1
 233 617 l 1,13,-1
 278 569 l 1,14,-1
 241 518 l 1,15,-1
 114 521 l 1,16,-1
 74 566 l 1,17,-1
 117 617 l 1,12,-1
18 395 m 1,18,-1
 18 476 l 1,19,-1
 57 536 l 1,20,-1
 98 487 l 1,21,-1
 99 394 l 1,22,-1
 58 346 l 1,23,-1
 18 395 l 1,18,-1
274 390 m 1,24,-1
 274 500 l 1,25,-1
 309 548 l 1,26,-1
 355 498 l 1,27,-1
 356 401 l 1,28,-1
 319 348 l 1,29,-1
 274 390 l 1,24,-1
107 351 m 1,30,-1
 254 353 l 1,31,-1
 301 309 l 1,32,-1
 263 263 l 1,33,-1
 103 263 l 1,34,-1
 74 311 l 1,35,-1
 107 351 l 1,30,-1
384 354 m 1,36,-1
 500 354 l 1,37,-1
 544 306 l 1,38,-1
 508 255 l 1,39,-1
 380 258 l 1,40,-1
 341 303 l 1,41,-1
 384 354 l 1,36,-1
285 132 m 1,42,-1
 285 214 l 1,43,-1
 324 273 l 1,44,-1
 365 225 l 1,45,-1
 366 131 l 1,46,-1
 325 83 l 1,47,-1
 285 132 l 1,42,-1
541 127 m 1,48,-1
 540 237 l 1,49,-1
 575 285 l 1,50,-1
 621 235 l 1,51,-1
 623 138 l 1,52,-1
 586 85 l 1,53,-1
 541 127 l 1,48,-1
373 88 m 1,54,-1
 521 90 l 1,55,-1
 567 46 l 1,56,-1
 529 0 l 1,57,-1
 370 0 l 1,58,-1
 341 48 l 1,59,-1
 373 88 l 1,54,-1
EndSplineSet
Validated: 1
EndChar

StartChar: ampersand
Encoding: 38 38 9
Width: 640
GlyphClass: 2
Flags: W
LayerCount: 2
Fore
SplineSet
48 132 m 1,0,-1
 48 214 l 1,1,-1
 87 273 l 1,2,-1
 128 225 l 1,3,-1
 129 131 l 1,4,-1
 89 83 l 1,5,-1
 48 132 l 1,0,-1
137 88 m 1,6,-1
 284 90 l 1,7,-1
 331 46 l 1,8,-1
 293 0 l 1,9,-1
 133 0 l 1,10,-1
 104 48 l 1,11,-1
 137 88 l 1,6,-1
150 617 m 1,12,-1
 266 617 l 1,13,-1
 311 569 l 1,14,-1
 274 518 l 1,15,-1
 147 521 l 1,16,-1
 107 566 l 1,17,-1
 150 617 l 1,12,-1
51 395 m 1,18,-1
 51 476 l 1,19,-1
 90 536 l 1,20,-1
 131 487 l 1,21,-1
 132 394 l 1,22,-1
 91 346 l 1,23,-1
 51 395 l 1,18,-1
307 390 m 1,24,-1
 307 500 l 1,25,-1
 342 548 l 1,26,-1
 388 498 l 1,27,-1
 389 401 l 1,28,-1
 352 348 l 1,29,-1
 307 390 l 1,24,-1
139 351 m 1,30,-1
 287 353 l 1,31,-1
 334 309 l 1,32,-1
 296 263 l 1,33,-1
 136 263 l 1,34,-1
 107 311 l 1,35,-1
 139 351 l 1,30,-1
417 354 m 1,36,-1
 532 354 l 1,37,-1
 577 306 l 1,38,-1
 541 255 l 1,39,-1
 413 258 l 1,40,-1
 374 303 l 1,41,-1
 417 354 l 1,36,-1
318 132 m 1,42,-1
 318 214 l 1,43,-1
 357 273 l 1,44,-1
 397 225 l 1,45,-1
 399 131 l 1,46,-1
 358 83 l 1,47,-1
 318 132 l 1,42,-1
406 88 m 1,48,-1
 553 90 l 1,49,-1
 600 46 l 1,50,-1
 562 0 l 1,51,-1
 402 0 l 1,52,-1
 373 48 l 1,53,-1
 406 88 l 1,48,-1
EndSplineSet
Validated: 1
EndChar

StartChar: quotesingle
Encoding: 39 39 10
Width: 640
GlyphClass: 2
Flags: W
LayerCount: 2
Fore
SplineSet
248 538 m 1,0,-1
 248 729 l 1,1,-1
 309 803 l 1,2,-1
 374 743 l 1,3,-1
 371 533 l 1,4,-1
 312 467 l 1,5,-1
 248 538 l 1,0,-1
EndSplineSet
Validated: 1
EndChar

StartChar: parenleft
Encoding: 40 40 11
Width: 640
GlyphClass: 2
Flags: W
LayerCount: 2
Fore
SplineSet
131 177 m 1,0,-1
 130 331 l 1,1,-1
 186 398 l 1,2,-1
 258 328 l 1,3,-1
 260 168 l 1,4,-1
 190 100 l 1,5,-1
 131 177 l 1,0,-1
271 805 m 1,6,-1
 412 807 l 1,7,-1
 486 745 l 1,8,-1
 426 681 l 1,9,-1
 265 682 l 1,10,-1
 200 740 l 1,11,-1
 271 805 l 1,6,-1
129 501 m 1,12,-1
 126 630 l 1,13,-1
 188 713 l 1,14,-1
 252 645 l 1,15,-1
 254 515 l 1,16,-1
 188 450 l 1,17,-1
 129 501 l 1,12,-1
281 123 m 1,18,-1
 418 126 l 1,19,-1
 492 64 l 1,20,-1
 432 0 l 1,21,-1
 275 0 l 1,22,-1
 215 58 l 1,23,-1
 281 123 l 1,18,-1
EndSplineSet
Validated: 1
EndChar

StartChar: parenright
Encoding: 41 41 12
Width: 640
GlyphClass: 2
Flags: W
LayerCount: 2
Fore
SplineSet
487 630 m 1,0,-1
 488 476 l 1,1,-1
 433 409 l 1,2,-1
 360 479 l 1,3,-1
 358 639 l 1,4,-1
 429 706 l 1,5,-1
 487 630 l 1,0,-1
347 2 m 1,6,-1
 203 0 l 1,7,-1
 129 61 l 1,8,-1
 189 126 l 1,9,-1
 353 125 l 1,10,-1
 418 67 l 1,11,-1
 347 2 l 1,6,-1
489 306 m 1,12,-1
 492 177 l 1,13,-1
 431 94 l 1,14,-1
 366 162 l 1,15,-1
 364 292 l 1,16,-1
 430 357 l 1,17,-1
 489 306 l 1,12,-1
337 684 m 1,18,-1
 200 681 l 1,19,-1
 126 742 l 1,20,-1
 186 807 l 1,21,-1
 343 807 l 1,22,-1
 403 749 l 1,23,-1
 337 684 l 1,18,-1
EndSplineSet
Validated: 1
EndChar

StartChar: asterisk
Encoding: 42 42 13
Width: 640
GlyphClass: 2
Flags: W
LayerCount: 2
Fore
SplineSet
407 467 m 1,0,-1
 297 510 l 1,1,-1
 187 466 l 1,2,-1
 194 584 l 1,3,-1
 118 675 l 1,4,-1
 233 705 l 1,5,-1
 295 805 l 1,6,-1
 359 705 l 1,7,-1
 474 676 l 1,8,-1
 399 585 l 1,9,-1
 407 467 l 1,0,-1
EndSplineSet
Validated: 1
EndChar

StartChar: plus
Encoding: 43 43 14
Width: 640
GlyphClass: 2
Flags: W
LayerCount: 2
Fore
SplineSet
239 165 m 1,0,-1
 241 291 l 1,1,-1
 296 358 l 1,2,-1
 369 288 l 1,3,-1
 368 156 l 1,4,-1
 297 88 l 1,5,-1
 239 165 l 1,0,-1
408 454 m 1,6,-1
 540 454 l 1,7,-1
 610 387 l 1,8,-1
 553 316 l 1,9,-1
 403 320 l 1,10,-1
 340 384 l 1,11,-1
 408 454 l 1,6,-1
240 461 m 1,12,-1
 236 607 l 1,13,-1
 297 690 l 1,14,-1
 362 623 l 1,15,-1
 365 475 l 1,16,-1
 299 410 l 1,17,-1
 240 461 l 1,12,-1
68 441 m 1,18,-1
 183 444 l 1,19,-1
 257 383 l 1,20,-1
 197 318 l 1,21,-1
 63 318 l 1,22,-1
 2 377 l 1,23,-1
 68 441 l 1,18,-1
EndSplineSet
Validated: 1
EndChar

StartChar: comma
Encoding: 44 44 15
Width: 640
GlyphClass: 2
Flags: W
LayerCount: 2
Fore
SplineSet
182 92 m 1,0,-1
 319 225 l 1,1,-1
 414 232 l 1,2,-1
 416 144 l 1,3,-1
 263 0 l 1,4,-1
 176 -4 l 1,5,-1
 182 92 l 1,0,-1
EndSplineSet
Validated: 1
EndChar

StartChar: hyphen
Encoding: 45 45 16
Width: 640
GlyphClass: 2
Flags: W
LayerCount: 2
Fore
SplineSet
97 459 m 1,0,-1
 535 456 l 1,1,-1
 605 389 l 1,2,-1
 548 318 l 1,3,-1
 92 325 l 1,4,-1
 29 388 l 1,5,-1
 97 459 l 1,0,-1
EndSplineSet
Validated: 1
EndChar

StartChar: period
Encoding: 46 46 17
Width: 640
GlyphClass: 2
Flags: W
LayerCount: 2
Fore
SplineSet
212 176 m 1,0,-1
 387 176 l 1,1,-1
 387 1 l 1,2,-1
 212 1 l 1,3,-1
 212 176 l 1,0,-1
EndSplineSet
Validated: 1
EndChar

StartChar: slash
Encoding: 47 47 18
Width: 640
GlyphClass: 2
Flags: W
LayerCount: 2
Fore
SplineSet
316 538 m 1,0,-1
 456 725 l 1,1,-1
 554 735 l 1,2,-1
 556 611 l 1,3,-1
 399 409 l 1,4,-1
 310 403 l 1,5,-1
 316 538 l 1,0,-1
57 197 m 1,6,-1
 198 384 l 1,7,-1
 295 394 l 1,8,-1
 297 270 l 1,9,-1
 141 67 l 1,10,-1
 51 62 l 1,11,-1
 57 197 l 1,6,-1
EndSplineSet
Validated: 1
EndChar

StartChar: zero
Encoding: 48 48 19
Width: 640
GlyphClass: 2
Flags: W
LayerCount: 2
Fore
SplineSet
441 521 m 1,0,-1
 446 650 l 1,1,-1
 502 718 l 1,2,-1
 574 647 l 1,3,-1
 577 512 l 1,4,-1
 518 445 l 1,5,-1
 441 521 l 1,0,-1
45 177 m 1,6,-1
 44 331 l 1,7,-1
 99 398 l 1,8,-1
 172 328 l 1,9,-1
 174 168 l 1,10,-1
 103 100 l 1,11,-1
 45 177 l 1,6,-1
185 805 m 1,12,-1
 399 807 l 1,13,-1
 473 745 l 1,14,-1
 413 681 l 1,15,-1
 179 682 l 1,16,-1
 114 740 l 1,17,-1
 185 805 l 1,12,-1
43 501 m 1,18,-1
 40 630 l 1,19,-1
 101 713 l 1,20,-1
 166 645 l 1,21,-1
 168 515 l 1,22,-1
 102 450 l 1,23,-1
 43 501 l 1,18,-1
460 177 m 1,24,-1
 459 331 l 1,25,-1
 514 398 l 1,26,-1
 587 328 l 1,27,-1
 589 193 l 1,28,-1
 530 119 l 1,29,-1
 460 177 l 1,24,-1
195 123 m 1,30,-1
 428 126 l 1,31,-1
 501 64 l 1,32,-1
 441 0 l 1,33,-1
 189 0 l 1,34,-1
 129 58 l 1,35,-1
 195 123 l 1,30,-1
EndSplineSet
Validated: 1
EndChar

StartChar: one
Encoding: 49 49 20
Width: 640
GlyphClass: 2
Flags: W
LayerCount: 2
Fore
SplineSet
452 80 m 1,0,-1
 452 295 l 1,1,-1
 513 378 l 1,2,-1
 578 310 l 1,3,-1
 574 74 l 1,4,-1
 516 0 l 1,5,-1
 452 80 l 1,0,-1
452 513 m 1,6,-1
 452 728 l 1,7,-1
 513 811 l 1,8,-1
 578 743 l 1,9,-1
 574 507 l 1,10,-1
 516 433 l 1,11,-1
 452 513 l 1,6,-1
EndSplineSet
Validated: 1
EndChar

StartChar: two
Encoding: 50 50 21
Width: 640
GlyphClass: 2
Flags: W
LayerCount: 2
Fore
SplineSet
444 805 m 1,0,-1
 515 740 l 1,1,-1
 449 682 l 1,2,-1
 216 681 l 1,3,-1
 156 745 l 1,4,-1
 230 807 l 1,5,-1
 444 805 l 1,0,-1
417 494 m 1,6,-1
 485 423 l 1,7,-1
 422 360 l 1,8,-1
 221 357 l 1,9,-1
 164 427 l 1,10,-1
 234 494 l 1,11,-1
 417 494 l 1,6,-1
586 501 m 1,12,-1
 526 450 l 1,13,-1
 461 515 l 1,14,-1
 463 645 l 1,15,-1
 527 713 l 1,16,-1
 589 630 l 1,17,-1
 586 501 l 1,12,-1
169 177 m 1,18,-1
 98 119 l 1,19,-1
 40 193 l 1,20,-1
 42 328 l 1,21,-1
 115 398 l 1,22,-1
 170 331 l 1,23,-1
 169 177 l 1,18,-1
434 123 m 1,24,-1
 505 58 l 1,25,-1
 439 0 l 1,26,-1
 187 0 l 1,27,-1
 127 64 l 1,28,-1
 201 126 l 1,29,-1
 434 123 l 1,24,-1
EndSplineSet
Validated: 1
EndChar

StartChar: three
Encoding: 51 51 22
Width: 640
GlyphClass: 2
Flags: W
LayerCount: 2
Fore
SplineSet
441 521 m 1,0,-1
 446 650 l 1,1,-1
 502 718 l 1,2,-1
 574 647 l 1,3,-1
 577 512 l 1,4,-1
 518 445 l 1,5,-1
 441 521 l 1,0,-1
185 805 m 1,6,-1
 399 807 l 1,7,-1
 473 745 l 1,8,-1
 413 681 l 1,9,-1
 179 682 l 1,10,-1
 114 740 l 1,11,-1
 185 805 l 1,6,-1
212 494 m 1,12,-1
 413 494 l 1,13,-1
 483 427 l 1,14,-1
 426 357 l 1,15,-1
 206 360 l 1,16,-1
 144 423 l 1,17,-1
 212 494 l 1,12,-1
460 177 m 1,18,-1
 459 331 l 1,19,-1
 514 398 l 1,20,-1
 587 328 l 1,21,-1
 589 193 l 1,22,-1
 530 119 l 1,23,-1
 460 177 l 1,18,-1
195 123 m 1,24,-1
 428 126 l 1,25,-1
 501 64 l 1,26,-1
 441 0 l 1,27,-1
 189 0 l 1,28,-1
 129 58 l 1,29,-1
 195 123 l 1,24,-1
EndSplineSet
Validated: 1
EndChar

StartChar: four
Encoding: 52 52 23
Width: 640
GlyphClass: 2
Flags: W
LayerCount: 2
Fore
SplineSet
441 521 m 1,0,-1
 447 730 l 1,1,-1
 503 798 l 1,2,-1
 575 727 l 1,3,-1
 577 512 l 1,4,-1
 518 445 l 1,5,-1
 441 521 l 1,0,-1
212 494 m 1,6,-1
 413 494 l 1,7,-1
 483 427 l 1,8,-1
 426 357 l 1,9,-1
 206 360 l 1,10,-1
 144 423 l 1,11,-1
 212 494 l 1,6,-1
43 501 m 1,12,-1
 41 710 l 1,13,-1
 102 793 l 1,14,-1
 167 725 l 1,15,-1
 168 515 l 1,16,-1
 102 450 l 1,17,-1
 43 501 l 1,12,-1
459 75 m 1,18,-1
 459 331 l 1,19,-1
 514 398 l 1,20,-1
 587 328 l 1,21,-1
 588 90 l 1,22,-1
 529 16 l 1,23,-1
 459 75 l 1,18,-1
EndSplineSet
Validated: 1
EndChar

StartChar: five
Encoding: 53 53 24
Width: 640
GlyphClass: 2
Flags: W
LayerCount: 2
Fore
SplineSet
185 805 m 1,0,-1
 399 807 l 1,1,-1
 473 745 l 1,2,-1
 413 681 l 1,3,-1
 179 682 l 1,4,-1
 114 740 l 1,5,-1
 185 805 l 1,0,-1
212 494 m 1,6,-1
 394 494 l 1,7,-1
 465 427 l 1,8,-1
 407 357 l 1,9,-1
 206 360 l 1,10,-1
 144 423 l 1,11,-1
 212 494 l 1,6,-1
43 501 m 1,12,-1
 40 630 l 1,13,-1
 101 713 l 1,14,-1
 166 645 l 1,15,-1
 168 515 l 1,16,-1
 102 450 l 1,17,-1
 43 501 l 1,12,-1
460 177 m 1,18,-1
 459 331 l 1,19,-1
 514 398 l 1,20,-1
 587 328 l 1,21,-1
 589 193 l 1,22,-1
 530 119 l 1,23,-1
 460 177 l 1,18,-1
195 123 m 1,24,-1
 428 126 l 1,25,-1
 501 64 l 1,26,-1
 441 0 l 1,27,-1
 189 0 l 1,28,-1
 124 58 l 1,29,-1
 195 123 l 1,24,-1
EndSplineSet
Validated: 1
EndChar

StartChar: six
Encoding: 54 54 25
Width: 640
GlyphClass: 2
Flags: W
LayerCount: 2
Fore
SplineSet
45 177 m 1,0,-1
 44 331 l 1,1,-1
 99 398 l 1,2,-1
 172 328 l 1,3,-1
 174 168 l 1,4,-1
 103 100 l 1,5,-1
 45 177 l 1,0,-1
185 805 m 1,6,-1
 399 807 l 1,7,-1
 473 745 l 1,8,-1
 413 681 l 1,9,-1
 179 682 l 1,10,-1
 114 740 l 1,11,-1
 185 805 l 1,6,-1
212 494 m 1,12,-1
 413 494 l 1,13,-1
 483 427 l 1,14,-1
 426 357 l 1,15,-1
 206 360 l 1,16,-1
 144 423 l 1,17,-1
 212 494 l 1,12,-1
43 501 m 1,18,-1
 40 630 l 1,19,-1
 101 713 l 1,20,-1
 166 645 l 1,21,-1
 168 515 l 1,22,-1
 102 450 l 1,23,-1
 43 501 l 1,18,-1
460 177 m 1,24,-1
 459 331 l 1,25,-1
 514 398 l 1,26,-1
 587 328 l 1,27,-1
 589 193 l 1,28,-1
 530 119 l 1,29,-1
 460 177 l 1,24,-1
195 123 m 1,30,-1
 428 126 l 1,31,-1
 501 64 l 1,32,-1
 441 0 l 1,33,-1
 189 0 l 1,34,-1
 129 58 l 1,35,-1
 195 123 l 1,30,-1
EndSplineSet
Validated: 1
EndChar

StartChar: seven
Encoding: 55 55 26
Width: 640
GlyphClass: 2
Flags: W
LayerCount: 2
Fore
SplineSet
441 521 m 1,0,-1
 446 650 l 1,1,-1
 502 718 l 1,2,-1
 574 647 l 1,3,-1
 577 512 l 1,4,-1
 518 445 l 1,5,-1
 441 521 l 1,0,-1
185 805 m 1,6,-1
 399 807 l 1,7,-1
 473 745 l 1,8,-1
 413 681 l 1,9,-1
 179 682 l 1,10,-1
 114 740 l 1,11,-1
 185 805 l 1,6,-1
460 82 m 1,12,-1
 459 331 l 1,13,-1
 514 398 l 1,14,-1
 587 328 l 1,15,-1
 589 97 l 1,16,-1
 530 24 l 1,17,-1
 460 82 l 1,12,-1
EndSplineSet
Validated: 1
EndChar

StartChar: eight
Encoding: 56 56 27
Width: 640
GlyphClass: 2
Flags: W
LayerCount: 2
Fore
SplineSet
441 521 m 1,0,-1
 446 650 l 1,1,-1
 502 718 l 1,2,-1
 574 647 l 1,3,-1
 577 512 l 1,4,-1
 518 445 l 1,5,-1
 441 521 l 1,0,-1
45 177 m 1,6,-1
 44 331 l 1,7,-1
 99 398 l 1,8,-1
 172 328 l 1,9,-1
 174 168 l 1,10,-1
 103 100 l 1,11,-1
 45 177 l 1,6,-1
185 805 m 1,12,-1
 399 807 l 1,13,-1
 473 745 l 1,14,-1
 413 681 l 1,15,-1
 179 682 l 1,16,-1
 114 740 l 1,17,-1
 185 805 l 1,12,-1
212 494 m 1,18,-1
 413 494 l 1,19,-1
 483 427 l 1,20,-1
 426 357 l 1,21,-1
 206 360 l 1,22,-1
 144 423 l 1,23,-1
 212 494 l 1,18,-1
43 501 m 1,24,-1
 40 630 l 1,25,-1
 101 713 l 1,26,-1
 166 645 l 1,27,-1
 168 515 l 1,28,-1
 102 450 l 1,29,-1
 43 501 l 1,24,-1
460 177 m 1,30,-1
 459 331 l 1,31,-1
 514 398 l 1,32,-1
 587 328 l 1,33,-1
 589 193 l 1,34,-1
 530 119 l 1,35,-1
 460 177 l 1,30,-1
195 123 m 1,36,-1
 428 126 l 1,37,-1
 501 64 l 1,38,-1
 441 0 l 1,39,-1
 189 0 l 1,40,-1
 129 58 l 1,41,-1
 195 123 l 1,36,-1
EndSplineSet
Validated: 1
EndChar

StartChar: nine
Encoding: 57 57 28
Width: 640
GlyphClass: 2
Flags: W
LayerCount: 2
Fore
SplineSet
441 521 m 1,0,-1
 446 650 l 1,1,-1
 502 718 l 1,2,-1
 574 647 l 1,3,-1
 577 512 l 1,4,-1
 518 445 l 1,5,-1
 441 521 l 1,0,-1
185 805 m 1,6,-1
 399 807 l 1,7,-1
 473 745 l 1,8,-1
 413 681 l 1,9,-1
 179 682 l 1,10,-1
 114 740 l 1,11,-1
 185 805 l 1,6,-1
212 494 m 1,12,-1
 413 494 l 1,13,-1
 483 427 l 1,14,-1
 426 357 l 1,15,-1
 206 360 l 1,16,-1
 144 423 l 1,17,-1
 212 494 l 1,12,-1
43 501 m 1,18,-1
 40 630 l 1,19,-1
 101 713 l 1,20,-1
 166 645 l 1,21,-1
 168 515 l 1,22,-1
 102 450 l 1,23,-1
 43 501 l 1,18,-1
460 177 m 1,24,-1
 459 331 l 1,25,-1
 514 398 l 1,26,-1
 587 328 l 1,27,-1
 589 193 l 1,28,-1
 530 119 l 1,29,-1
 460 177 l 1,24,-1
195 123 m 1,30,-1
 428 126 l 1,31,-1
 501 64 l 1,32,-1
 441 0 l 1,33,-1
 189 0 l 1,34,-1
 129 58 l 1,35,-1
 195 123 l 1,30,-1
EndSplineSet
Validated: 1
EndChar

StartChar: colon
Encoding: 58 58 29
Width: 640
GlyphClass: 2
Flags: W
LayerCount: 2
Fore
SplineSet
212 645 m 1,0,-1
 387 645 l 1,1,-1
 387 470 l 1,2,-1
 212 470 l 1,3,-1
 212 645 l 1,0,-1
212 295 m 1,4,-1
 387 295 l 1,5,-1
 387 120 l 1,6,-1
 212 120 l 1,7,-1
 212 295 l 1,4,-1
EndSplineSet
Validated: 1
EndChar

StartChar: semicolon
Encoding: 59 59 30
Width: 640
GlyphClass: 2
Flags: W
LayerCount: 2
Fore
SplineSet
212 492 m 1,0,-1
 387 492 l 1,1,-1
 387 316 l 1,2,-1
 212 316 l 1,3,-1
 212 492 l 1,0,-1
182 92 m 1,4,-1
 319 225 l 1,5,-1
 414 232 l 1,6,-1
 416 144 l 1,7,-1
 263 0 l 1,8,-1
 176 -4 l 1,9,-1
 182 92 l 1,4,-1
EndSplineSet
Validated: 1
EndChar

StartChar: less
Encoding: 60 60 31
Width: 640
GlyphClass: 2
Flags: W
LayerCount: 2
Fore
SplineSet
182 136 m 1,0,-1
 176 232 l 1,1,-1
 263 228 l 1,2,-1
 416 84 l 1,3,-1
 414 -4 l 1,4,-1
 319 3 l 1,5,-1
 182 136 l 1,0,-1
409 426 m 1,6,-1
 271 293 l 1,7,-1
 176 286 l 1,8,-1
 174 374 l 1,9,-1
 327 518 l 1,10,-1
 415 521 l 1,11,-1
 409 426 l 1,6,-1
EndSplineSet
Validated: 1
EndChar

StartChar: equal
Encoding: 61 61 32
Width: 640
GlyphClass: 2
Flags: W
LayerCount: 2
Fore
SplineSet
108 233 m 1,0,-1
 516 234 l 1,1,-1
 581 178 l 1,2,-1
 528 118 l 1,3,-1
 103 120 l 1,4,-1
 45 174 l 1,5,-1
 108 233 l 1,0,-1
106 600 m 1,6,-1
 513 600 l 1,7,-1
 579 544 l 1,8,-1
 525 484 l 1,9,-1
 101 486 l 1,10,-1
 43 540 l 1,11,-1
 106 600 l 1,6,-1
EndSplineSet
Validated: 1
EndChar

StartChar: greater
Encoding: 62 62 33
Width: 640
GlyphClass: 2
Flags: W
LayerCount: 2
Fore
SplineSet
409 381 m 1,0,-1
 415 286 l 1,1,-1
 327 289 l 1,2,-1
 174 433 l 1,3,-1
 176 521 l 1,4,-1
 271 514 l 1,5,-1
 409 381 l 1,0,-1
182 92 m 1,6,-1
 319 225 l 1,7,-1
 414 232 l 1,8,-1
 416 144 l 1,9,-1
 263 0 l 1,10,-1
 176 -4 l 1,11,-1
 182 92 l 1,6,-1
EndSplineSet
Validated: 1
EndChar

StartChar: question
Encoding: 63 63 34
Width: 640
GlyphClass: 2
Flags: W
LayerCount: 2
Fore
SplineSet
39 104 m 1,0,-1
 167 104 l 1,1,-1
 167 -15 l 1,2,-1
 39 -15 l 1,3,-1
 39 104 l 1,0,-1
444 805 m 1,4,-1
 515 740 l 1,5,-1
 449 682 l 1,6,-1
 216 681 l 1,7,-1
 156 745 l 1,8,-1
 230 807 l 1,9,-1
 444 805 l 1,4,-1
417 494 m 1,10,-1
 485 423 l 1,11,-1
 422 360 l 1,12,-1
 221 357 l 1,13,-1
 164 427 l 1,14,-1
 234 494 l 1,15,-1
 417 494 l 1,10,-1
586 501 m 1,16,-1
 526 450 l 1,17,-1
 461 515 l 1,18,-1
 463 645 l 1,19,-1
 527 713 l 1,20,-1
 589 630 l 1,21,-1
 586 501 l 1,16,-1
169 177 m 1,22,-1
 98 119 l 1,23,-1
 40 193 l 1,24,-1
 42 328 l 1,25,-1
 115 398 l 1,26,-1
 170 331 l 1,27,-1
 169 177 l 1,22,-1
EndSplineSet
Validated: 1
EndChar

StartChar: at
Encoding: 64 64 35
Width: 640
GlyphClass: 2
Flags: W
LayerCount: 2
Fore
SplineSet
441 521 m 1,0,-1
 446 650 l 1,1,-1
 502 718 l 1,2,-1
 574 647 l 1,3,-1
 577 512 l 1,4,-1
 518 445 l 1,5,-1
 441 521 l 1,0,-1
45 177 m 1,6,-1
 44 331 l 1,7,-1
 99 398 l 1,8,-1
 172 328 l 1,9,-1
 174 168 l 1,10,-1
 103 100 l 1,11,-1
 45 177 l 1,6,-1
185 805 m 1,12,-1
 399 807 l 1,13,-1
 473 745 l 1,14,-1
 413 681 l 1,15,-1
 179 682 l 1,16,-1
 114 740 l 1,17,-1
 185 805 l 1,12,-1
212 494 m 1,18,-1
 413 494 l 1,19,-1
 483 427 l 1,20,-1
 426 357 l 1,21,-1
 206 360 l 1,22,-1
 144 423 l 1,23,-1
 212 494 l 1,18,-1
460 177 m 1,24,-1
 459 331 l 1,25,-1
 514 398 l 1,26,-1
 587 328 l 1,27,-1
 589 193 l 1,28,-1
 530 119 l 1,29,-1
 460 177 l 1,24,-1
195 123 m 1,30,-1
 428 126 l 1,31,-1
 501 64 l 1,32,-1
 441 0 l 1,33,-1
 189 0 l 1,34,-1
 129 58 l 1,35,-1
 195 123 l 1,30,-1
EndSplineSet
Validated: 1
EndChar

StartChar: A
Encoding: 65 65 36
Width: 640
GlyphClass: 2
Flags: W
LayerCount: 2
Fore
SplineSet
441 521 m 1,0,-1
 446 650 l 1,1,-1
 502 718 l 1,2,-1
 574 647 l 1,3,-1
 577 512 l 1,4,-1
 518 445 l 1,5,-1
 441 521 l 1,0,-1
45 97 m 1,6,-1
 44 331 l 1,7,-1
 99 398 l 1,8,-1
 172 328 l 1,9,-1
 174 88 l 1,10,-1
 103 20 l 1,11,-1
 45 97 l 1,6,-1
185 805 m 1,12,-1
 399 807 l 1,13,-1
 473 745 l 1,14,-1
 413 681 l 1,15,-1
 179 682 l 1,16,-1
 114 740 l 1,17,-1
 185 805 l 1,12,-1
212 494 m 1,18,-1
 413 494 l 1,19,-1
 483 427 l 1,20,-1
 426 357 l 1,21,-1
 206 360 l 1,22,-1
 144 423 l 1,23,-1
 212 494 l 1,18,-1
43 501 m 1,24,-1
 40 630 l 1,25,-1
 101 713 l 1,26,-1
 166 645 l 1,27,-1
 168 515 l 1,28,-1
 102 450 l 1,29,-1
 43 501 l 1,24,-1
463 73 m 1,30,-1
 459 331 l 1,31,-1
 514 398 l 1,32,-1
 587 328 l 1,33,-1
 592 88 l 1,34,-1
 534 14 l 1,35,-1
 463 73 l 1,30,-1
EndSplineSet
Validated: 1
EndChar

StartChar: B
Encoding: 66 66 37
Width: 640
GlyphClass: 2
Flags: W
LayerCount: 2
Fore
SplineSet
441 521 m 1,0,-1
 446 650 l 1,1,-1
 502 718 l 1,2,-1
 574 647 l 1,3,-1
 577 512 l 1,4,-1
 518 445 l 1,5,-1
 441 521 l 1,0,-1
44 331 m 1,6,-1
 99 398 l 1,7,-1
 172 328 l 1,8,-1
 174 168 l 1,9,-1
 42 0 l 1,10,-1
 44 331 l 1,6,-1
399 807 m 1,11,-1
 473 745 l 1,12,-1
 413 681 l 1,13,-1
 208 690 l 1,14,-1
 95 807 l 1,15,-1
 399 807 l 1,11,-1
212 494 m 1,16,-1
 413 494 l 1,17,-1
 483 427 l 1,18,-1
 426 357 l 1,19,-1
 206 360 l 1,20,-1
 144 423 l 1,21,-1
 212 494 l 1,16,-1
43 501 m 1,22,-1
 45 785 l 1,23,-1
 165 675 l 1,24,-1
 168 515 l 1,25,-1
 102 450 l 1,26,-1
 43 501 l 1,22,-1
460 177 m 1,27,-1
 459 331 l 1,28,-1
 514 398 l 1,29,-1
 587 328 l 1,30,-1
 589 193 l 1,31,-1
 530 119 l 1,32,-1
 460 177 l 1,27,-1
195 123 m 1,33,-1
 428 126 l 1,34,-1
 501 64 l 1,35,-1
 441 0 l 1,36,-1
 106 0 l 1,37,-1
 195 123 l 1,33,-1
EndSplineSet
Validated: 1
EndChar

StartChar: C
Encoding: 67 67 38
Width: 640
GlyphClass: 2
Flags: W
LayerCount: 2
Fore
SplineSet
45 177 m 1,0,-1
 44 331 l 1,1,-1
 99 398 l 1,2,-1
 172 328 l 1,3,-1
 174 168 l 1,4,-1
 103 100 l 1,5,-1
 45 177 l 1,0,-1
185 805 m 1,6,-1
 399 807 l 1,7,-1
 473 745 l 1,8,-1
 413 681 l 1,9,-1
 179 682 l 1,10,-1
 114 740 l 1,11,-1
 185 805 l 1,6,-1
43 501 m 1,12,-1
 40 630 l 1,13,-1
 101 713 l 1,14,-1
 166 645 l 1,15,-1
 168 515 l 1,16,-1
 102 450 l 1,17,-1
 43 501 l 1,12,-1
195 123 m 1,18,-1
 428 126 l 1,19,-1
 501 64 l 1,20,-1
 441 0 l 1,21,-1
 189 0 l 1,22,-1
 129 58 l 1,23,-1
 195 123 l 1,18,-1
EndSplineSet
Validated: 1
EndChar

StartChar: D
Encoding: 68 68 39
Width: 640
GlyphClass: 2
Flags: W
LayerCount: 2
Fore
SplineSet
441 521 m 1,0,-1
 446 650 l 1,1,-1
 502 718 l 1,2,-1
 574 647 l 1,3,-1
 577 512 l 1,4,-1
 518 445 l 1,5,-1
 441 521 l 1,0,-1
44 331 m 1,6,-1
 99 398 l 1,7,-1
 172 328 l 1,8,-1
 174 168 l 1,9,-1
 42 0 l 1,10,-1
 44 331 l 1,6,-1
399 807 m 1,11,-1
 473 745 l 1,12,-1
 413 681 l 1,13,-1
 208 690 l 1,14,-1
 95 807 l 1,15,-1
 399 807 l 1,11,-1
43 501 m 1,16,-1
 45 785 l 1,17,-1
 165 675 l 1,18,-1
 168 515 l 1,19,-1
 102 450 l 1,20,-1
 43 501 l 1,16,-1
460 177 m 1,21,-1
 459 331 l 1,22,-1
 514 398 l 1,23,-1
 587 328 l 1,24,-1
 589 193 l 1,25,-1
 530 119 l 1,26,-1
 460 177 l 1,21,-1
195 123 m 1,27,-1
 428 126 l 1,28,-1
 501 64 l 1,29,-1
 441 0 l 1,30,-1
 106 0 l 1,31,-1
 195 123 l 1,27,-1
EndSplineSet
Validated: 1
EndChar

StartChar: E
Encoding: 69 69 40
Width: 640
GlyphClass: 2
Flags: W
LayerCount: 2
Fore
SplineSet
199 487 m 1,0,-1
 431 490 l 1,1,-1
 505 429 l 1,2,-1
 445 365 l 1,3,-1
 193 365 l 1,4,-1
 133 423 l 1,5,-1
 199 487 l 1,0,-1
45 177 m 1,6,-1
 44 331 l 1,7,-1
 99 398 l 1,8,-1
 172 328 l 1,9,-1
 174 168 l 1,10,-1
 103 100 l 1,11,-1
 45 177 l 1,6,-1
185 805 m 1,12,-1
 399 807 l 1,13,-1
 473 745 l 1,14,-1
 413 681 l 1,15,-1
 179 682 l 1,16,-1
 114 740 l 1,17,-1
 185 805 l 1,12,-1
43 501 m 1,18,-1
 40 630 l 1,19,-1
 101 713 l 1,20,-1
 166 645 l 1,21,-1
 168 515 l 1,22,-1
 102 450 l 1,23,-1
 43 501 l 1,18,-1
195 123 m 1,24,-1
 428 126 l 1,25,-1
 501 64 l 1,26,-1
 441 0 l 1,27,-1
 189 0 l 1,28,-1
 129 58 l 1,29,-1
 195 123 l 1,24,-1
EndSplineSet
Validated: 1
EndChar

StartChar: F
Encoding: 70 70 41
Width: 640
GlyphClass: 2
Flags: W
LayerCount: 2
Fore
SplineSet
199 487 m 1,0,-1
 398 490 l 1,1,-1
 472 429 l 1,2,-1
 412 365 l 1,3,-1
 193 365 l 1,4,-1
 133 423 l 1,5,-1
 199 487 l 1,0,-1
44 116 m 1,6,-1
 44 331 l 1,7,-1
 99 398 l 1,8,-1
 172 328 l 1,9,-1
 173 106 l 1,10,-1
 102 39 l 1,11,-1
 44 116 l 1,6,-1
185 805 m 1,12,-1
 399 807 l 1,13,-1
 473 745 l 1,14,-1
 413 681 l 1,15,-1
 179 682 l 1,16,-1
 114 740 l 1,17,-1
 185 805 l 1,12,-1
43 501 m 1,18,-1
 40 630 l 1,19,-1
 101 713 l 1,20,-1
 166 645 l 1,21,-1
 168 515 l 1,22,-1
 102 450 l 1,23,-1
 43 501 l 1,18,-1
EndSplineSet
Validated: 1
EndChar

StartChar: G
Encoding: 71 71 42
Width: 640
GlyphClass: 2
Flags: W
LayerCount: 2
Fore
SplineSet
290 487 m 1,0,-1
 425 487 l 1,1,-1
 498 426 l 1,2,-1
 438 361 l 1,3,-1
 285 365 l 1,4,-1
 290 487 l 1,0,-1
45 177 m 1,5,-1
 44 331 l 1,6,-1
 99 398 l 1,7,-1
 172 328 l 1,8,-1
 174 168 l 1,9,-1
 103 100 l 1,10,-1
 45 177 l 1,5,-1
185 805 m 1,11,-1
 399 807 l 1,12,-1
 473 745 l 1,13,-1
 413 681 l 1,14,-1
 179 682 l 1,15,-1
 114 740 l 1,16,-1
 185 805 l 1,11,-1
43 501 m 1,17,-1
 40 630 l 1,18,-1
 101 713 l 1,19,-1
 166 645 l 1,20,-1
 168 515 l 1,21,-1
 102 450 l 1,22,-1
 43 501 l 1,17,-1
460 177 m 1,23,-1
 459 331 l 1,24,-1
 514 398 l 1,25,-1
 587 328 l 1,26,-1
 589 193 l 1,27,-1
 530 119 l 1,28,-1
 460 177 l 1,23,-1
195 123 m 1,29,-1
 428 126 l 1,30,-1
 501 64 l 1,31,-1
 441 0 l 1,32,-1
 189 0 l 1,33,-1
 129 58 l 1,34,-1
 195 123 l 1,29,-1
EndSplineSet
Validated: 1
EndChar

StartChar: H
Encoding: 72 72 43
Width: 640
GlyphClass: 2
Flags: W
LayerCount: 2
Fore
SplineSet
441 521 m 1,0,-1
 447 718 l 1,1,-1
 503 785 l 1,2,-1
 575 715 l 1,3,-1
 577 512 l 1,4,-1
 518 445 l 1,5,-1
 441 521 l 1,0,-1
43 89 m 1,6,-1
 44 331 l 1,7,-1
 99 398 l 1,8,-1
 172 328 l 1,9,-1
 172 80 l 1,10,-1
 101 12 l 1,11,-1
 43 89 l 1,6,-1
212 494 m 1,12,-1
 413 494 l 1,13,-1
 483 427 l 1,14,-1
 426 357 l 1,15,-1
 206 360 l 1,16,-1
 144 423 l 1,17,-1
 212 494 l 1,12,-1
43 501 m 1,18,-1
 41 697 l 1,19,-1
 102 780 l 1,20,-1
 167 713 l 1,21,-1
 168 515 l 1,22,-1
 102 450 l 1,23,-1
 43 501 l 1,18,-1
461 68 m 1,24,-1
 459 331 l 1,25,-1
 514 398 l 1,26,-1
 587 328 l 1,27,-1
 590 83 l 1,28,-1
 531 9 l 1,29,-1
 461 68 l 1,24,-1
EndSplineSet
Validated: 1
EndChar

StartChar: I
Encoding: 73 73 44
Width: 640
GlyphClass: 2
Flags: W
LayerCount: 2
Fore
SplineSet
53 80 m 1,0,-1
 53 295 l 1,1,-1
 114 378 l 1,2,-1
 179 310 l 1,3,-1
 175 74 l 1,4,-1
 117 0 l 1,5,-1
 53 80 l 1,0,-1
53 513 m 1,6,-1
 53 728 l 1,7,-1
 114 811 l 1,8,-1
 179 743 l 1,9,-1
 175 507 l 1,10,-1
 117 433 l 1,11,-1
 53 513 l 1,6,-1
EndSplineSet
Validated: 1
EndChar

StartChar: J
Encoding: 74 74 45
Width: 640
GlyphClass: 2
Flags: W
LayerCount: 2
Fore
SplineSet
447 521 m 1,0,-1
 447 726 l 1,1,-1
 503 794 l 1,2,-1
 575 723 l 1,3,-1
 577 512 l 1,4,-1
 518 445 l 1,5,-1
 447 521 l 1,0,-1
45 177 m 1,6,-1
 44 331 l 1,7,-1
 99 398 l 1,8,-1
 172 328 l 1,9,-1
 174 168 l 1,10,-1
 103 100 l 1,11,-1
 45 177 l 1,6,-1
460 177 m 1,12,-1
 459 331 l 1,13,-1
 514 398 l 1,14,-1
 587 328 l 1,15,-1
 589 193 l 1,16,-1
 530 119 l 1,17,-1
 460 177 l 1,12,-1
195 123 m 1,18,-1
 428 126 l 1,19,-1
 501 64 l 1,20,-1
 441 0 l 1,21,-1
 189 0 l 1,22,-1
 129 58 l 1,23,-1
 195 123 l 1,18,-1
EndSplineSet
Validated: 1
EndChar

StartChar: K
Encoding: 75 75 46
Width: 640
GlyphClass: 2
Flags: W
LayerCount: 2
Fore
SplineSet
199 626 m 1,0,-1
 457 794 l 1,1,-1
 544 795 l 1,2,-1
 546 707 l 1,3,-1
 281 534 l 1,4,-1
 199 530 l 1,5,-1
 199 626 l 1,0,-1
46 87 m 1,6,-1
 44 331 l 1,7,-1
 99 398 l 1,8,-1
 172 328 l 1,9,-1
 175 78 l 1,10,-1
 105 10 l 1,11,-1
 46 87 l 1,6,-1
212 494 m 1,12,-1
 413 494 l 1,13,-1
 483 427 l 1,14,-1
 426 357 l 1,15,-1
 206 360 l 1,16,-1
 144 423 l 1,17,-1
 212 494 l 1,12,-1
43 501 m 1,18,-1
 39 710 l 1,19,-1
 100 793 l 1,20,-1
 165 725 l 1,21,-1
 168 515 l 1,22,-1
 102 450 l 1,23,-1
 43 501 l 1,18,-1
464 58 m 1,24,-1
 459 331 l 1,25,-1
 514 398 l 1,26,-1
 587 328 l 1,27,-1
 593 74 l 1,28,-1
 535 0 l 1,29,-1
 464 58 l 1,24,-1
EndSplineSet
Validated: 1
EndChar

StartChar: L
Encoding: 76 76 47
Width: 640
GlyphClass: 2
Flags: W
LayerCount: 2
Fore
SplineSet
45 177 m 1,0,-1
 44 331 l 1,1,-1
 99 398 l 1,2,-1
 172 328 l 1,3,-1
 174 168 l 1,4,-1
 103 100 l 1,5,-1
 45 177 l 1,0,-1
43 501 m 1,6,-1
 39 709 l 1,7,-1
 100 792 l 1,8,-1
 165 724 l 1,9,-1
 168 515 l 1,10,-1
 102 450 l 1,11,-1
 43 501 l 1,6,-1
195 123 m 1,12,-1
 428 126 l 1,13,-1
 501 64 l 1,14,-1
 441 0 l 1,15,-1
 189 0 l 1,16,-1
 129 58 l 1,17,-1
 195 123 l 1,12,-1
EndSplineSet
Validated: 1
EndChar

StartChar: M
Encoding: 77 77 48
Width: 640
GlyphClass: 2
Flags: W
LayerCount: 2
Fore
SplineSet
245 401 m 1,0,-1
 243 620 l 1,1,-1
 371 616 l 1,2,-1
 374 417 l 1,3,-1
 315 343 l 1,4,-1
 245 401 l 1,0,-1
441 521 m 1,5,-1
 446 650 l 1,6,-1
 502 718 l 1,7,-1
 574 647 l 1,8,-1
 577 512 l 1,9,-1
 518 445 l 1,10,-1
 441 521 l 1,5,-1
48 97 m 1,11,-1
 44 331 l 1,12,-1
 99 398 l 1,13,-1
 172 328 l 1,14,-1
 177 88 l 1,15,-1
 107 20 l 1,16,-1
 48 97 l 1,11,-1
185 805 m 1,17,-1
 399 807 l 1,18,-1
 473 745 l 1,19,-1
 413 681 l 1,20,-1
 179 682 l 1,21,-1
 114 740 l 1,22,-1
 185 805 l 1,17,-1
43 501 m 1,23,-1
 40 630 l 1,24,-1
 101 713 l 1,25,-1
 166 645 l 1,26,-1
 168 515 l 1,27,-1
 102 450 l 1,28,-1
 43 501 l 1,23,-1
459 67 m 1,29,-1
 459 331 l 1,30,-1
 514 398 l 1,31,-1
 587 328 l 1,32,-1
 588 82 l 1,33,-1
 529 8 l 1,34,-1
 459 67 l 1,29,-1
EndSplineSet
Validated: 1
EndChar

StartChar: N
Encoding: 78 78 49
Width: 640
GlyphClass: 2
Flags: W
LayerCount: 2
Fore
SplineSet
441 521 m 1,0,-1
 446 650 l 1,1,-1
 502 718 l 1,2,-1
 574 647 l 1,3,-1
 577 512 l 1,4,-1
 518 445 l 1,5,-1
 441 521 l 1,0,-1
42 97 m 1,6,-1
 44 331 l 1,7,-1
 99 398 l 1,8,-1
 172 328 l 1,9,-1
 171 88 l 1,10,-1
 100 20 l 1,11,-1
 42 97 l 1,6,-1
185 805 m 1,12,-1
 399 807 l 1,13,-1
 473 745 l 1,14,-1
 413 681 l 1,15,-1
 179 682 l 1,16,-1
 114 740 l 1,17,-1
 185 805 l 1,12,-1
43 501 m 1,18,-1
 40 630 l 1,19,-1
 101 713 l 1,20,-1
 166 645 l 1,21,-1
 168 515 l 1,22,-1
 102 450 l 1,23,-1
 43 501 l 1,18,-1
460 76 m 1,24,-1
 459 331 l 1,25,-1
 514 398 l 1,26,-1
 587 328 l 1,27,-1
 589 91 l 1,28,-1
 530 17 l 1,29,-1
 460 76 l 1,24,-1
EndSplineSet
Validated: 1
EndChar

StartChar: O
Encoding: 79 79 50
Width: 640
GlyphClass: 2
Flags: W
LayerCount: 2
Fore
SplineSet
441 521 m 1,0,-1
 446 650 l 1,1,-1
 502 718 l 1,2,-1
 574 647 l 1,3,-1
 577 512 l 1,4,-1
 518 445 l 1,5,-1
 441 521 l 1,0,-1
45 177 m 1,6,-1
 44 331 l 1,7,-1
 99 398 l 1,8,-1
 172 328 l 1,9,-1
 174 168 l 1,10,-1
 103 100 l 1,11,-1
 45 177 l 1,6,-1
185 805 m 1,12,-1
 399 807 l 1,13,-1
 473 745 l 1,14,-1
 413 681 l 1,15,-1
 179 682 l 1,16,-1
 114 740 l 1,17,-1
 185 805 l 1,12,-1
43 501 m 1,18,-1
 40 630 l 1,19,-1
 101 713 l 1,20,-1
 166 645 l 1,21,-1
 168 515 l 1,22,-1
 102 450 l 1,23,-1
 43 501 l 1,18,-1
460 177 m 1,24,-1
 459 331 l 1,25,-1
 514 398 l 1,26,-1
 587 328 l 1,27,-1
 589 193 l 1,28,-1
 530 119 l 1,29,-1
 460 177 l 1,24,-1
195 123 m 1,30,-1
 428 126 l 1,31,-1
 501 64 l 1,32,-1
 441 0 l 1,33,-1
 189 0 l 1,34,-1
 129 58 l 1,35,-1
 195 123 l 1,30,-1
EndSplineSet
Validated: 1
EndChar

StartChar: P
Encoding: 80 80 51
Width: 640
GlyphClass: 2
Flags: W
LayerCount: 2
Fore
SplineSet
441 521 m 1,0,-1
 446 650 l 1,1,-1
 502 718 l 1,2,-1
 574 647 l 1,3,-1
 577 512 l 1,4,-1
 518 445 l 1,5,-1
 441 521 l 1,0,-1
45 100 m 1,6,-1
 44 331 l 1,7,-1
 99 398 l 1,8,-1
 172 328 l 1,9,-1
 174 91 l 1,10,-1
 103 24 l 1,11,-1
 45 100 l 1,6,-1
185 805 m 1,12,-1
 399 807 l 1,13,-1
 473 745 l 1,14,-1
 413 681 l 1,15,-1
 179 682 l 1,16,-1
 114 740 l 1,17,-1
 185 805 l 1,12,-1
212 494 m 1,18,-1
 413 494 l 1,19,-1
 483 427 l 1,20,-1
 426 357 l 1,21,-1
 206 360 l 1,22,-1
 144 423 l 1,23,-1
 212 494 l 1,18,-1
43 501 m 1,24,-1
 40 630 l 1,25,-1
 101 713 l 1,26,-1
 166 645 l 1,27,-1
 168 515 l 1,28,-1
 102 450 l 1,29,-1
 43 501 l 1,24,-1
EndSplineSet
Validated: 1
EndChar

StartChar: Q
Encoding: 81 81 52
Width: 640
GlyphClass: 2
Flags: W
LayerCount: 2
Fore
SplineSet
43 501 m 1,0,-1
 40 630 l 1,1,-1
 101 713 l 1,2,-1
 166 645 l 1,3,-1
 168 515 l 1,4,-1
 102 450 l 1,5,-1
 43 501 l 1,0,-1
185 805 m 1,6,-1
 399 807 l 1,7,-1
 473 745 l 1,8,-1
 413 681 l 1,9,-1
 179 682 l 1,10,-1
 114 740 l 1,11,-1
 185 805 l 1,6,-1
45 177 m 1,12,-1
 44 331 l 1,13,-1
 99 398 l 1,14,-1
 172 328 l 1,15,-1
 174 168 l 1,16,-1
 103 100 l 1,17,-1
 45 177 l 1,12,-1
441 521 m 1,18,-1
 446 650 l 1,19,-1
 502 718 l 1,20,-1
 574 647 l 1,21,-1
 577 512 l 1,22,-1
 518 445 l 1,23,-1
 441 521 l 1,18,-1
550 144 m 1,24,-1
 601 87 l 1,25,-1
 601 9 l 1,26,-1
 507 8 l 1,27,-1
 478 40 l 1,28,-1
 441 0 l 1,29,-1
 189 0 l 1,30,-1
 129 58 l 1,31,-1
 195 123 l 1,32,-1
 399 126 l 1,33,-1
 378 149 l 1,34,-1
 374 245 l 1,35,-1
 459 244 l 1,36,-1
 459 331 l 1,37,-1
 514 398 l 1,38,-1
 587 328 l 1,39,-1
 589 193 l 1,40,-1
 550 144 l 1,24,-1
EndSplineSet
Validated: 1
EndChar

StartChar: R
Encoding: 82 82 53
Width: 640
GlyphClass: 2
Flags: W
LayerCount: 2
Fore
SplineSet
482 27 m 1,0,-1
 210 226 l 1,1,-1
 205 321 l 1,2,-1
 289 325 l 1,3,-1
 567 114 l 1,4,-1
 568 27 l 1,5,-1
 482 27 l 1,0,-1
441 521 m 1,6,-1
 446 650 l 1,7,-1
 502 718 l 1,8,-1
 574 647 l 1,9,-1
 577 512 l 1,10,-1
 518 445 l 1,11,-1
 441 521 l 1,6,-1
45 100 m 1,12,-1
 44 331 l 1,13,-1
 99 398 l 1,14,-1
 172 328 l 1,15,-1
 174 91 l 1,16,-1
 103 24 l 1,17,-1
 45 100 l 1,12,-1
185 805 m 1,18,-1
 399 807 l 1,19,-1
 473 745 l 1,20,-1
 413 681 l 1,21,-1
 179 682 l 1,22,-1
 114 740 l 1,23,-1
 185 805 l 1,18,-1
212 494 m 1,24,-1
 413 494 l 1,25,-1
 483 427 l 1,26,-1
 426 357 l 1,27,-1
 206 360 l 1,28,-1
 144 423 l 1,29,-1
 212 494 l 1,24,-1
43 501 m 1,30,-1
 40 630 l 1,31,-1
 101 713 l 1,32,-1
 166 645 l 1,33,-1
 168 515 l 1,34,-1
 102 450 l 1,35,-1
 43 501 l 1,30,-1
EndSplineSet
Validated: 1
EndChar

StartChar: S
Encoding: 83 83 54
Width: 640
GlyphClass: 2
Flags: W
LayerCount: 2
Fore
SplineSet
185 805 m 1,0,-1
 517 810 l 1,1,-1
 590 749 l 1,2,-1
 530 684 l 1,3,-1
 179 682 l 1,4,-1
 114 740 l 1,5,-1
 185 805 l 1,0,-1
212 494 m 1,6,-1
 394 494 l 1,7,-1
 465 427 l 1,8,-1
 407 357 l 1,9,-1
 206 360 l 1,10,-1
 144 423 l 1,11,-1
 212 494 l 1,6,-1
43 501 m 1,12,-1
 40 630 l 1,13,-1
 101 713 l 1,14,-1
 166 645 l 1,15,-1
 168 515 l 1,16,-1
 102 450 l 1,17,-1
 43 501 l 1,12,-1
460 177 m 1,18,-1
 459 331 l 1,19,-1
 514 398 l 1,20,-1
 587 328 l 1,21,-1
 589 193 l 1,22,-1
 530 119 l 1,23,-1
 460 177 l 1,18,-1
118 123 m 1,24,-1
 428 126 l 1,25,-1
 501 64 l 1,26,-1
 441 0 l 1,27,-1
 113 0 l 1,28,-1
 47 58 l 1,29,-1
 118 123 l 1,24,-1
EndSplineSet
Validated: 1
EndChar

StartChar: T
Encoding: 84 84 55
Width: 640
GlyphClass: 2
Flags: W
LayerCount: 2
Fore
SplineSet
248 90 m 1,0,-1
 249 245 l 1,1,-1
 310 328 l 1,2,-1
 375 260 l 1,3,-1
 371 84 l 1,4,-1
 312 10 l 1,5,-1
 248 90 l 1,0,-1
94 787 m 1,6,-1
 531 784 l 1,7,-1
 601 717 l 1,8,-1
 544 647 l 1,9,-1
 374 649 l 1,10,-1
 372 457 l 1,11,-1
 313 383 l 1,12,-1
 249 463 l 1,13,-1
 249 651 l 1,14,-1
 88 653 l 1,15,-1
 26 717 l 1,16,-1
 94 787 l 1,6,-1
EndSplineSet
Validated: 1
EndChar

StartChar: U
Encoding: 85 85 56
Width: 640
GlyphClass: 2
Flags: W
LayerCount: 2
Fore
SplineSet
187 303 m 1,0,-1
 182 174 l 1,1,-1
 127 106 l 1,2,-1
 54 177 l 1,3,-1
 52 312 l 1,4,-1
 111 379 l 1,5,-1
 187 303 l 1,0,-1
587 727 m 1,6,-1
 585 494 l 1,7,-1
 529 426 l 1,8,-1
 457 497 l 1,9,-1
 458 736 l 1,10,-1
 528 804 l 1,11,-1
 587 727 l 1,6,-1
444 19 m 1,12,-1
 230 17 l 1,13,-1
 156 79 l 1,14,-1
 216 143 l 1,15,-1
 450 142 l 1,16,-1
 515 84 l 1,17,-1
 444 19 l 1,12,-1
586 324 m 1,18,-1
 589 194 l 1,19,-1
 527 112 l 1,20,-1
 463 179 l 1,21,-1
 461 309 l 1,22,-1
 526 375 l 1,23,-1
 586 324 l 1,18,-1
169 748 m 1,24,-1
 170 494 l 1,25,-1
 115 426 l 1,26,-1
 42 497 l 1,27,-1
 40 733 l 1,28,-1
 98 807 l 1,29,-1
 169 748 l 1,24,-1
EndSplineSet
Validated: 1
EndChar

StartChar: V
Encoding: 86 86 57
Width: 640
GlyphClass: 2
Flags: W
LayerCount: 2
Fore
SplineSet
182 92 m 1,0,-1
 483 377 l 1,1,-1
 579 384 l 1,2,-1
 581 296 l 1,3,-1
 263 0 l 1,4,-1
 176 -4 l 1,5,-1
 182 92 l 1,0,-1
187 303 m 1,6,-1
 180 110 l 1,7,-1
 125 42 l 1,8,-1
 52 113 l 1,9,-1
 52 312 l 1,10,-1
 111 379 l 1,11,-1
 187 303 l 1,6,-1
587 727 m 1,12,-1
 585 494 l 1,13,-1
 529 426 l 1,14,-1
 457 497 l 1,15,-1
 458 736 l 1,16,-1
 528 804 l 1,17,-1
 587 727 l 1,12,-1
169 748 m 1,18,-1
 170 494 l 1,19,-1
 115 426 l 1,20,-1
 42 497 l 1,21,-1
 40 733 l 1,22,-1
 98 807 l 1,23,-1
 169 748 l 1,18,-1
EndSplineSet
Validated: 1
EndChar

StartChar: W
Encoding: 87 87 58
Width: 640
GlyphClass: 2
Flags: W
LayerCount: 2
Fore
SplineSet
383 414 m 1,0,-1
 385 196 l 1,1,-1
 257 199 l 1,2,-1
 254 398 l 1,3,-1
 312 472 l 1,4,-1
 383 414 l 1,0,-1
186 294 m 1,5,-1
 181 165 l 1,6,-1
 126 97 l 1,7,-1
 53 168 l 1,8,-1
 51 303 l 1,9,-1
 110 370 l 1,10,-1
 186 294 l 1,5,-1
579 718 m 1,11,-1
 584 484 l 1,12,-1
 528 417 l 1,13,-1
 456 487 l 1,14,-1
 450 727 l 1,15,-1
 521 795 l 1,16,-1
 579 718 l 1,11,-1
443 10 m 1,17,-1
 229 8 l 1,18,-1
 155 70 l 1,19,-1
 215 134 l 1,20,-1
 449 133 l 1,21,-1
 514 75 l 1,22,-1
 443 10 l 1,17,-1
585 314 m 1,23,-1
 588 185 l 1,24,-1
 526 102 l 1,25,-1
 462 170 l 1,26,-1
 460 300 l 1,27,-1
 525 366 l 1,28,-1
 585 314 l 1,23,-1
169 748 m 1,29,-1
 169 484 l 1,30,-1
 114 417 l 1,31,-1
 41 487 l 1,32,-1
 40 733 l 1,33,-1
 98 807 l 1,34,-1
 169 748 l 1,29,-1
EndSplineSet
Validated: 1
EndChar

StartChar: X
Encoding: 88 88 59
Width: 640
GlyphClass: 2
Flags: W
LayerCount: 2
Fore
SplineSet
291 565 m 1,0,-1
 293 438 l 1,1,-1
 206 432 l 1,2,-1
 47 640 l 1,3,-1
 49 768 l 1,4,-1
 150 770 l 1,5,-1
 291 565 l 1,0,-1
47 133 m 1,6,-1
 198 338 l 1,7,-1
 299 338 l 1,8,-1
 299 221 l 1,9,-1
 135 0 l 1,10,-1
 49 0 l 1,11,-1
 47 133 l 1,6,-1
353 210 m 1,12,-1
 352 342 l 1,13,-1
 438 343 l 1,14,-1
 597 135 l 1,15,-1
 600 0 l 1,16,-1
 506 0 l 1,17,-1
 353 210 l 1,12,-1
589 629 m 1,18,-1
 447 437 l 1,19,-1
 352 440 l 1,20,-1
 346 554 l 1,21,-1
 508 780 l 1,22,-1
 592 780 l 1,23,-1
 589 629 l 1,18,-1
EndSplineSet
Validated: 1
EndChar

StartChar: Y
Encoding: 89 89 60
Width: 640
GlyphClass: 2
Flags: W
LayerCount: 2
Fore
SplineSet
441 521 m 1,0,-1
 445 723 l 1,1,-1
 501 791 l 1,2,-1
 573 720 l 1,3,-1
 577 512 l 1,4,-1
 518 445 l 1,5,-1
 441 521 l 1,0,-1
212 494 m 1,6,-1
 413 494 l 1,7,-1
 483 427 l 1,8,-1
 426 357 l 1,9,-1
 206 360 l 1,10,-1
 144 423 l 1,11,-1
 212 494 l 1,6,-1
43 501 m 1,12,-1
 39 702 l 1,13,-1
 100 785 l 1,14,-1
 165 718 l 1,15,-1
 168 515 l 1,16,-1
 102 450 l 1,17,-1
 43 501 l 1,12,-1
460 177 m 1,18,-1
 459 331 l 1,19,-1
 514 398 l 1,20,-1
 587 328 l 1,21,-1
 589 193 l 1,22,-1
 530 119 l 1,23,-1
 460 177 l 1,18,-1
195 123 m 1,24,-1
 428 126 l 1,25,-1
 501 64 l 1,26,-1
 441 0 l 1,27,-1
 189 0 l 1,28,-1
 129 58 l 1,29,-1
 195 123 l 1,24,-1
EndSplineSet
Validated: 1
EndChar

StartChar: Z
Encoding: 90 90 61
Width: 640
GlyphClass: 2
Flags: W
LayerCount: 2
Fore
SplineSet
342 509 m 1,0,-1
 505 647 l 1,1,-1
 600 654 l 1,2,-1
 602 566 l 1,3,-1
 424 417 l 1,4,-1
 336 413 l 1,5,-1
 342 509 l 1,0,-1
30 247 m 1,6,-1
 220 396 l 1,7,-1
 316 403 l 1,8,-1
 317 315 l 1,9,-1
 111 155 l 1,10,-1
 24 151 l 1,11,-1
 30 247 l 1,6,-1
541 805 m 1,12,-1
 612 740 l 1,13,-1
 547 682 l 1,14,-1
 90 681 l 1,15,-1
 30 745 l 1,16,-1
 104 807 l 1,17,-1
 541 805 l 1,12,-1
537 123 m 1,18,-1
 608 58 l 1,19,-1
 543 0 l 1,20,-1
 85 0 l 1,21,-1
 25 64 l 1,22,-1
 99 126 l 1,23,-1
 537 123 l 1,18,-1
EndSplineSet
Validated: 1
EndChar

StartChar: bracketleft
Encoding: 91 91 62
Width: 640
GlyphClass: 2
Flags: W
LayerCount: 2
Fore
SplineSet
131 177 m 1,0,-1
 130 331 l 1,1,-1
 186 398 l 1,2,-1
 258 328 l 1,3,-1
 260 168 l 1,4,-1
 190 100 l 1,5,-1
 131 177 l 1,0,-1
271 805 m 1,6,-1
 412 807 l 1,7,-1
 486 745 l 1,8,-1
 426 681 l 1,9,-1
 265 682 l 1,10,-1
 200 740 l 1,11,-1
 271 805 l 1,6,-1
129 501 m 1,12,-1
 126 630 l 1,13,-1
 188 713 l 1,14,-1
 252 645 l 1,15,-1
 254 515 l 1,16,-1
 188 450 l 1,17,-1
 129 501 l 1,12,-1
281 123 m 1,18,-1
 418 126 l 1,19,-1
 492 64 l 1,20,-1
 432 0 l 1,21,-1
 275 0 l 1,22,-1
 215 58 l 1,23,-1
 281 123 l 1,18,-1
EndSplineSet
Validated: 1
EndChar

StartChar: backslash
Encoding: 92 92 63
Width: 640
GlyphClass: 2
Flags: W
LayerCount: 2
Fore
SplineSet
291 538 m 1,0,-1
 297 403 l 1,1,-1
 208 409 l 1,2,-1
 51 611 l 1,3,-1
 53 735 l 1,4,-1
 151 725 l 1,5,-1
 291 538 l 1,0,-1
550 197 m 1,6,-1
 556 62 l 1,7,-1
 466 67 l 1,8,-1
 310 270 l 1,9,-1
 312 394 l 1,10,-1
 409 384 l 1,11,-1
 550 197 l 1,6,-1
EndSplineSet
Validated: 1
EndChar

StartChar: bracketright
Encoding: 93 93 64
Width: 640
GlyphClass: 2
Flags: W
LayerCount: 2
Fore
SplineSet
487 630 m 1,0,-1
 488 476 l 1,1,-1
 433 409 l 1,2,-1
 360 479 l 1,3,-1
 358 639 l 1,4,-1
 429 706 l 1,5,-1
 487 630 l 1,0,-1
347 2 m 1,6,-1
 203 0 l 1,7,-1
 129 61 l 1,8,-1
 189 126 l 1,9,-1
 353 125 l 1,10,-1
 418 67 l 1,11,-1
 347 2 l 1,6,-1
489 306 m 1,12,-1
 492 177 l 1,13,-1
 431 94 l 1,14,-1
 366 162 l 1,15,-1
 364 292 l 1,16,-1
 430 357 l 1,17,-1
 489 306 l 1,12,-1
337 684 m 1,18,-1
 200 681 l 1,19,-1
 126 742 l 1,20,-1
 186 807 l 1,21,-1
 343 807 l 1,22,-1
 403 749 l 1,23,-1
 337 684 l 1,18,-1
EndSplineSet
Validated: 1
EndChar

StartChar: asciicircum
Encoding: 94 94 65
Width: 640
GlyphClass: 2
Flags: W
LayerCount: 2
Fore
SplineSet
210 762 m 1,0,-1
 298 762 l 1,1,-1
 296 669 l 1,2,-1
 150 516 l 1,3,-1
 62 518 l 1,4,-1
 69 614 l 1,5,-1
 210 762 l 1,0,-1
492 524 m 1,6,-1
 354 671 l 1,7,-1
 353 759 l 1,8,-1
 440 758 l 1,9,-1
 584 605 l 1,10,-1
 587 518 l 1,11,-1
 492 524 l 1,6,-1
EndSplineSet
Validated: 1
EndChar

StartChar: underscore
Encoding: 95 95 66
Width: 640
GlyphClass: 2
Flags: W
LayerCount: 2
Fore
SplineSet
556 0 m 1,0,-1
 89 0 l 1,1,-1
 15 61 l 1,2,-1
 75 126 l 1,3,-1
 561 123 l 1,4,-1
 627 64 l 1,5,-1
 556 0 l 1,0,-1
EndSplineSet
Validated: 1
EndChar

StartChar: grave
Encoding: 96 96 67
Width: 640
GlyphClass: 2
Flags: W
LayerCount: 2
Fore
SplineSet
416 620 m 1,0,-1
 422 525 l 1,1,-1
 335 528 l 1,2,-1
 182 672 l 1,3,-1
 184 754 l 1,4,-1
 279 753 l 1,5,-1
 416 620 l 1,0,-1
EndSplineSet
Validated: 1
EndChar

StartChar: a
Encoding: 97 97 68
Width: 640
GlyphClass: 2
Flags: W
LayerCount: 2
Fore
SplineSet
441 521 m 1,0,-1
 446 650 l 1,1,-1
 502 718 l 1,2,-1
 574 647 l 1,3,-1
 577 512 l 1,4,-1
 518 445 l 1,5,-1
 441 521 l 1,0,-1
45 97 m 1,6,-1
 44 331 l 1,7,-1
 99 398 l 1,8,-1
 172 328 l 1,9,-1
 174 88 l 1,10,-1
 103 20 l 1,11,-1
 45 97 l 1,6,-1
185 805 m 1,12,-1
 399 807 l 1,13,-1
 473 745 l 1,14,-1
 413 681 l 1,15,-1
 179 682 l 1,16,-1
 114 740 l 1,17,-1
 185 805 l 1,12,-1
212 494 m 1,18,-1
 413 494 l 1,19,-1
 483 427 l 1,20,-1
 426 357 l 1,21,-1
 206 360 l 1,22,-1
 144 423 l 1,23,-1
 212 494 l 1,18,-1
43 501 m 1,24,-1
 40 630 l 1,25,-1
 101 713 l 1,26,-1
 166 645 l 1,27,-1
 168 515 l 1,28,-1
 102 450 l 1,29,-1
 43 501 l 1,24,-1
463 73 m 1,30,-1
 459 331 l 1,31,-1
 514 398 l 1,32,-1
 587 328 l 1,33,-1
 592 88 l 1,34,-1
 534 14 l 1,35,-1
 463 73 l 1,30,-1
EndSplineSet
Validated: 1
EndChar

StartChar: b
Encoding: 98 98 69
Width: 640
GlyphClass: 2
Flags: W
LayerCount: 2
Fore
SplineSet
441 521 m 1,0,-1
 446 650 l 1,1,-1
 502 718 l 1,2,-1
 574 647 l 1,3,-1
 577 512 l 1,4,-1
 518 445 l 1,5,-1
 441 521 l 1,0,-1
44 331 m 1,6,-1
 99 398 l 1,7,-1
 172 328 l 1,8,-1
 174 168 l 1,9,-1
 42 0 l 1,10,-1
 44 331 l 1,6,-1
399 807 m 1,11,-1
 473 745 l 1,12,-1
 413 681 l 1,13,-1
 208 690 l 1,14,-1
 95 807 l 1,15,-1
 399 807 l 1,11,-1
212 494 m 1,16,-1
 413 494 l 1,17,-1
 483 427 l 1,18,-1
 426 357 l 1,19,-1
 206 360 l 1,20,-1
 144 423 l 1,21,-1
 212 494 l 1,16,-1
43 501 m 1,22,-1
 45 785 l 1,23,-1
 165 675 l 1,24,-1
 168 515 l 1,25,-1
 102 450 l 1,26,-1
 43 501 l 1,22,-1
460 177 m 1,27,-1
 459 331 l 1,28,-1
 514 398 l 1,29,-1
 587 328 l 1,30,-1
 589 193 l 1,31,-1
 530 119 l 1,32,-1
 460 177 l 1,27,-1
195 123 m 1,33,-1
 428 126 l 1,34,-1
 501 64 l 1,35,-1
 441 0 l 1,36,-1
 106 0 l 1,37,-1
 195 123 l 1,33,-1
EndSplineSet
Validated: 1
EndChar

StartChar: c
Encoding: 99 99 70
Width: 640
GlyphClass: 2
Flags: W
LayerCount: 2
Fore
SplineSet
45 177 m 1,0,-1
 44 331 l 1,1,-1
 99 398 l 1,2,-1
 172 328 l 1,3,-1
 174 168 l 1,4,-1
 103 100 l 1,5,-1
 45 177 l 1,0,-1
185 805 m 1,6,-1
 399 807 l 1,7,-1
 473 745 l 1,8,-1
 413 681 l 1,9,-1
 179 682 l 1,10,-1
 114 740 l 1,11,-1
 185 805 l 1,6,-1
43 501 m 1,12,-1
 40 630 l 1,13,-1
 101 713 l 1,14,-1
 166 645 l 1,15,-1
 168 515 l 1,16,-1
 102 450 l 1,17,-1
 43 501 l 1,12,-1
195 123 m 1,18,-1
 428 126 l 1,19,-1
 501 64 l 1,20,-1
 441 0 l 1,21,-1
 189 0 l 1,22,-1
 129 58 l 1,23,-1
 195 123 l 1,18,-1
EndSplineSet
Validated: 1
EndChar

StartChar: d
Encoding: 100 100 71
Width: 640
GlyphClass: 2
Flags: W
LayerCount: 2
Fore
SplineSet
441 521 m 1,0,-1
 446 650 l 1,1,-1
 502 718 l 1,2,-1
 574 647 l 1,3,-1
 577 512 l 1,4,-1
 518 445 l 1,5,-1
 441 521 l 1,0,-1
44 331 m 1,6,-1
 99 398 l 1,7,-1
 172 328 l 1,8,-1
 174 168 l 1,9,-1
 42 0 l 1,10,-1
 44 331 l 1,6,-1
399 807 m 1,11,-1
 473 745 l 1,12,-1
 413 681 l 1,13,-1
 208 690 l 1,14,-1
 95 807 l 1,15,-1
 399 807 l 1,11,-1
43 501 m 1,16,-1
 45 785 l 1,17,-1
 165 675 l 1,18,-1
 168 515 l 1,19,-1
 102 450 l 1,20,-1
 43 501 l 1,16,-1
460 177 m 1,21,-1
 459 331 l 1,22,-1
 514 398 l 1,23,-1
 587 328 l 1,24,-1
 589 193 l 1,25,-1
 530 119 l 1,26,-1
 460 177 l 1,21,-1
195 123 m 1,27,-1
 428 126 l 1,28,-1
 501 64 l 1,29,-1
 441 0 l 1,30,-1
 106 0 l 1,31,-1
 195 123 l 1,27,-1
EndSplineSet
Validated: 1
EndChar

StartChar: e
Encoding: 101 101 72
Width: 640
GlyphClass: 2
Flags: W
LayerCount: 2
Fore
SplineSet
199 487 m 1,0,-1
 431 490 l 1,1,-1
 505 429 l 1,2,-1
 445 365 l 1,3,-1
 193 365 l 1,4,-1
 133 423 l 1,5,-1
 199 487 l 1,0,-1
45 177 m 1,6,-1
 44 331 l 1,7,-1
 99 398 l 1,8,-1
 172 328 l 1,9,-1
 174 168 l 1,10,-1
 103 100 l 1,11,-1
 45 177 l 1,6,-1
185 805 m 1,12,-1
 399 807 l 1,13,-1
 473 745 l 1,14,-1
 413 681 l 1,15,-1
 179 682 l 1,16,-1
 114 740 l 1,17,-1
 185 805 l 1,12,-1
43 501 m 1,18,-1
 40 630 l 1,19,-1
 101 713 l 1,20,-1
 166 645 l 1,21,-1
 168 515 l 1,22,-1
 102 450 l 1,23,-1
 43 501 l 1,18,-1
195 123 m 1,24,-1
 428 126 l 1,25,-1
 501 64 l 1,26,-1
 441 0 l 1,27,-1
 189 0 l 1,28,-1
 129 58 l 1,29,-1
 195 123 l 1,24,-1
EndSplineSet
Validated: 1
EndChar

StartChar: f
Encoding: 102 102 73
Width: 640
GlyphClass: 2
Flags: W
LayerCount: 2
Fore
SplineSet
199 487 m 1,0,-1
 398 490 l 1,1,-1
 472 429 l 1,2,-1
 412 365 l 1,3,-1
 193 365 l 1,4,-1
 133 423 l 1,5,-1
 199 487 l 1,0,-1
44 116 m 1,6,-1
 44 331 l 1,7,-1
 99 398 l 1,8,-1
 172 328 l 1,9,-1
 173 106 l 1,10,-1
 102 39 l 1,11,-1
 44 116 l 1,6,-1
185 805 m 1,12,-1
 399 807 l 1,13,-1
 473 745 l 1,14,-1
 413 681 l 1,15,-1
 179 682 l 1,16,-1
 114 740 l 1,17,-1
 185 805 l 1,12,-1
43 501 m 1,18,-1
 40 630 l 1,19,-1
 101 713 l 1,20,-1
 166 645 l 1,21,-1
 168 515 l 1,22,-1
 102 450 l 1,23,-1
 43 501 l 1,18,-1
EndSplineSet
Validated: 1
EndChar

StartChar: g
Encoding: 103 103 74
Width: 640
GlyphClass: 2
Flags: W
LayerCount: 2
Fore
SplineSet
290 487 m 1,0,-1
 425 487 l 1,1,-1
 498 426 l 1,2,-1
 438 361 l 1,3,-1
 285 365 l 1,4,-1
 290 487 l 1,0,-1
45 177 m 1,5,-1
 44 331 l 1,6,-1
 99 398 l 1,7,-1
 172 328 l 1,8,-1
 174 168 l 1,9,-1
 103 100 l 1,10,-1
 45 177 l 1,5,-1
185 805 m 1,11,-1
 399 807 l 1,12,-1
 473 745 l 1,13,-1
 413 681 l 1,14,-1
 179 682 l 1,15,-1
 114 740 l 1,16,-1
 185 805 l 1,11,-1
43 501 m 1,17,-1
 40 630 l 1,18,-1
 101 713 l 1,19,-1
 166 645 l 1,20,-1
 168 515 l 1,21,-1
 102 450 l 1,22,-1
 43 501 l 1,17,-1
460 177 m 1,23,-1
 459 331 l 1,24,-1
 514 398 l 1,25,-1
 587 328 l 1,26,-1
 589 193 l 1,27,-1
 530 119 l 1,28,-1
 460 177 l 1,23,-1
195 123 m 1,29,-1
 428 126 l 1,30,-1
 501 64 l 1,31,-1
 441 0 l 1,32,-1
 189 0 l 1,33,-1
 129 58 l 1,34,-1
 195 123 l 1,29,-1
EndSplineSet
Validated: 1
EndChar

StartChar: h
Encoding: 104 104 75
Width: 640
GlyphClass: 2
Flags: W
LayerCount: 2
Fore
SplineSet
441 521 m 1,0,-1
 447 718 l 1,1,-1
 503 785 l 1,2,-1
 575 715 l 1,3,-1
 577 512 l 1,4,-1
 518 445 l 1,5,-1
 441 521 l 1,0,-1
43 89 m 1,6,-1
 44 331 l 1,7,-1
 99 398 l 1,8,-1
 172 328 l 1,9,-1
 172 80 l 1,10,-1
 101 12 l 1,11,-1
 43 89 l 1,6,-1
212 494 m 1,12,-1
 413 494 l 1,13,-1
 483 427 l 1,14,-1
 426 357 l 1,15,-1
 206 360 l 1,16,-1
 144 423 l 1,17,-1
 212 494 l 1,12,-1
43 501 m 1,18,-1
 41 697 l 1,19,-1
 102 780 l 1,20,-1
 167 713 l 1,21,-1
 168 515 l 1,22,-1
 102 450 l 1,23,-1
 43 501 l 1,18,-1
461 68 m 1,24,-1
 459 331 l 1,25,-1
 514 398 l 1,26,-1
 587 328 l 1,27,-1
 590 83 l 1,28,-1
 531 9 l 1,29,-1
 461 68 l 1,24,-1
EndSplineSet
Validated: 1
EndChar

StartChar: i
Encoding: 105 105 76
Width: 640
GlyphClass: 2
Flags: W
LayerCount: 2
Fore
SplineSet
53 80 m 1,0,-1
 53 295 l 1,1,-1
 114 378 l 1,2,-1
 179 310 l 1,3,-1
 175 74 l 1,4,-1
 117 0 l 1,5,-1
 53 80 l 1,0,-1
53 513 m 1,6,-1
 53 728 l 1,7,-1
 114 811 l 1,8,-1
 179 743 l 1,9,-1
 175 507 l 1,10,-1
 117 433 l 1,11,-1
 53 513 l 1,6,-1
EndSplineSet
Validated: 1
EndChar

StartChar: j
Encoding: 106 106 77
Width: 640
GlyphClass: 2
Flags: W
LayerCount: 2
Fore
SplineSet
447 521 m 1,0,-1
 447 726 l 1,1,-1
 503 794 l 1,2,-1
 575 723 l 1,3,-1
 577 512 l 1,4,-1
 518 445 l 1,5,-1
 447 521 l 1,0,-1
45 177 m 1,6,-1
 44 331 l 1,7,-1
 99 398 l 1,8,-1
 172 328 l 1,9,-1
 174 168 l 1,10,-1
 103 100 l 1,11,-1
 45 177 l 1,6,-1
460 177 m 1,12,-1
 459 331 l 1,13,-1
 514 398 l 1,14,-1
 587 328 l 1,15,-1
 589 193 l 1,16,-1
 530 119 l 1,17,-1
 460 177 l 1,12,-1
195 123 m 1,18,-1
 428 126 l 1,19,-1
 501 64 l 1,20,-1
 441 0 l 1,21,-1
 189 0 l 1,22,-1
 129 58 l 1,23,-1
 195 123 l 1,18,-1
EndSplineSet
Validated: 1
EndChar

StartChar: k
Encoding: 107 107 78
Width: 640
GlyphClass: 2
Flags: W
LayerCount: 2
Fore
SplineSet
199 626 m 1,0,-1
 457 794 l 1,1,-1
 544 795 l 1,2,-1
 546 707 l 1,3,-1
 281 534 l 1,4,-1
 199 530 l 1,5,-1
 199 626 l 1,0,-1
46 87 m 1,6,-1
 44 331 l 1,7,-1
 99 398 l 1,8,-1
 172 328 l 1,9,-1
 175 78 l 1,10,-1
 105 10 l 1,11,-1
 46 87 l 1,6,-1
212 494 m 1,12,-1
 413 494 l 1,13,-1
 483 427 l 1,14,-1
 426 357 l 1,15,-1
 206 360 l 1,16,-1
 144 423 l 1,17,-1
 212 494 l 1,12,-1
43 501 m 1,18,-1
 39 710 l 1,19,-1
 100 793 l 1,20,-1
 165 725 l 1,21,-1
 168 515 l 1,22,-1
 102 450 l 1,23,-1
 43 501 l 1,18,-1
464 58 m 1,24,-1
 459 331 l 1,25,-1
 514 398 l 1,26,-1
 587 328 l 1,27,-1
 593 74 l 1,28,-1
 535 0 l 1,29,-1
 464 58 l 1,24,-1
EndSplineSet
Validated: 1
EndChar

StartChar: l
Encoding: 108 108 79
Width: 640
GlyphClass: 2
Flags: W
LayerCount: 2
Fore
SplineSet
45 177 m 1,0,-1
 44 331 l 1,1,-1
 99 398 l 1,2,-1
 172 328 l 1,3,-1
 174 168 l 1,4,-1
 103 100 l 1,5,-1
 45 177 l 1,0,-1
43 501 m 1,6,-1
 39 709 l 1,7,-1
 100 792 l 1,8,-1
 165 724 l 1,9,-1
 168 515 l 1,10,-1
 102 450 l 1,11,-1
 43 501 l 1,6,-1
195 123 m 1,12,-1
 428 126 l 1,13,-1
 501 64 l 1,14,-1
 441 0 l 1,15,-1
 189 0 l 1,16,-1
 129 58 l 1,17,-1
 195 123 l 1,12,-1
EndSplineSet
Validated: 1
EndChar

StartChar: m
Encoding: 109 109 80
Width: 640
GlyphClass: 2
Flags: W
LayerCount: 2
Fore
SplineSet
245 401 m 1,0,-1
 243 620 l 1,1,-1
 371 616 l 1,2,-1
 374 417 l 1,3,-1
 315 343 l 1,4,-1
 245 401 l 1,0,-1
441 521 m 1,5,-1
 446 650 l 1,6,-1
 502 718 l 1,7,-1
 574 647 l 1,8,-1
 577 512 l 1,9,-1
 518 445 l 1,10,-1
 441 521 l 1,5,-1
48 97 m 1,11,-1
 44 331 l 1,12,-1
 99 398 l 1,13,-1
 172 328 l 1,14,-1
 177 88 l 1,15,-1
 107 20 l 1,16,-1
 48 97 l 1,11,-1
185 805 m 1,17,-1
 399 807 l 1,18,-1
 473 745 l 1,19,-1
 413 681 l 1,20,-1
 179 682 l 1,21,-1
 114 740 l 1,22,-1
 185 805 l 1,17,-1
43 501 m 1,23,-1
 40 630 l 1,24,-1
 101 713 l 1,25,-1
 166 645 l 1,26,-1
 168 515 l 1,27,-1
 102 450 l 1,28,-1
 43 501 l 1,23,-1
459 67 m 1,29,-1
 459 331 l 1,30,-1
 514 398 l 1,31,-1
 587 328 l 1,32,-1
 588 82 l 1,33,-1
 529 8 l 1,34,-1
 459 67 l 1,29,-1
EndSplineSet
Validated: 1
EndChar

StartChar: n
Encoding: 110 110 81
Width: 640
GlyphClass: 2
Flags: W
LayerCount: 2
Fore
SplineSet
441 521 m 1,0,-1
 446 650 l 1,1,-1
 502 718 l 1,2,-1
 574 647 l 1,3,-1
 577 512 l 1,4,-1
 518 445 l 1,5,-1
 441 521 l 1,0,-1
42 97 m 1,6,-1
 44 331 l 1,7,-1
 99 398 l 1,8,-1
 172 328 l 1,9,-1
 171 88 l 1,10,-1
 100 20 l 1,11,-1
 42 97 l 1,6,-1
185 805 m 1,12,-1
 399 807 l 1,13,-1
 473 745 l 1,14,-1
 413 681 l 1,15,-1
 179 682 l 1,16,-1
 114 740 l 1,17,-1
 185 805 l 1,12,-1
43 501 m 1,18,-1
 40 630 l 1,19,-1
 101 713 l 1,20,-1
 166 645 l 1,21,-1
 168 515 l 1,22,-1
 102 450 l 1,23,-1
 43 501 l 1,18,-1
460 76 m 1,24,-1
 459 331 l 1,25,-1
 514 398 l 1,26,-1
 587 328 l 1,27,-1
 589 91 l 1,28,-1
 530 17 l 1,29,-1
 460 76 l 1,24,-1
EndSplineSet
Validated: 1
EndChar

StartChar: o
Encoding: 111 111 82
Width: 640
GlyphClass: 2
Flags: W
LayerCount: 2
Fore
SplineSet
441 521 m 1,0,-1
 446 650 l 1,1,-1
 502 718 l 1,2,-1
 574 647 l 1,3,-1
 577 512 l 1,4,-1
 518 445 l 1,5,-1
 441 521 l 1,0,-1
45 177 m 1,6,-1
 44 331 l 1,7,-1
 99 398 l 1,8,-1
 172 328 l 1,9,-1
 174 168 l 1,10,-1
 103 100 l 1,11,-1
 45 177 l 1,6,-1
185 805 m 1,12,-1
 399 807 l 1,13,-1
 473 745 l 1,14,-1
 413 681 l 1,15,-1
 179 682 l 1,16,-1
 114 740 l 1,17,-1
 185 805 l 1,12,-1
43 501 m 1,18,-1
 40 630 l 1,19,-1
 101 713 l 1,20,-1
 166 645 l 1,21,-1
 168 515 l 1,22,-1
 102 450 l 1,23,-1
 43 501 l 1,18,-1
460 177 m 1,24,-1
 459 331 l 1,25,-1
 514 398 l 1,26,-1
 587 328 l 1,27,-1
 589 193 l 1,28,-1
 530 119 l 1,29,-1
 460 177 l 1,24,-1
195 123 m 1,30,-1
 428 126 l 1,31,-1
 501 64 l 1,32,-1
 441 0 l 1,33,-1
 189 0 l 1,34,-1
 129 58 l 1,35,-1
 195 123 l 1,30,-1
EndSplineSet
Validated: 1
EndChar

StartChar: p
Encoding: 112 112 83
Width: 640
GlyphClass: 2
Flags: W
LayerCount: 2
Fore
SplineSet
441 521 m 1,0,-1
 446 650 l 1,1,-1
 502 718 l 1,2,-1
 574 647 l 1,3,-1
 577 512 l 1,4,-1
 518 445 l 1,5,-1
 441 521 l 1,0,-1
45 100 m 1,6,-1
 44 331 l 1,7,-1
 99 398 l 1,8,-1
 172 328 l 1,9,-1
 174 91 l 1,10,-1
 103 24 l 1,11,-1
 45 100 l 1,6,-1
185 805 m 1,12,-1
 399 807 l 1,13,-1
 473 745 l 1,14,-1
 413 681 l 1,15,-1
 179 682 l 1,16,-1
 114 740 l 1,17,-1
 185 805 l 1,12,-1
212 494 m 1,18,-1
 413 494 l 1,19,-1
 483 427 l 1,20,-1
 426 357 l 1,21,-1
 206 360 l 1,22,-1
 144 423 l 1,23,-1
 212 494 l 1,18,-1
43 501 m 1,24,-1
 40 630 l 1,25,-1
 101 713 l 1,26,-1
 166 645 l 1,27,-1
 168 515 l 1,28,-1
 102 450 l 1,29,-1
 43 501 l 1,24,-1
EndSplineSet
Validated: 1
EndChar

StartChar: q
Encoding: 113 113 84
Width: 640
GlyphClass: 2
Flags: W
LayerCount: 2
Fore
SplineSet
43 501 m 1,0,-1
 40 630 l 1,1,-1
 101 713 l 1,2,-1
 166 645 l 1,3,-1
 168 515 l 1,4,-1
 102 450 l 1,5,-1
 43 501 l 1,0,-1
185 805 m 1,6,-1
 399 807 l 1,7,-1
 473 745 l 1,8,-1
 413 681 l 1,9,-1
 179 682 l 1,10,-1
 114 740 l 1,11,-1
 185 805 l 1,6,-1
45 177 m 1,12,-1
 44 331 l 1,13,-1
 99 398 l 1,14,-1
 172 328 l 1,15,-1
 174 168 l 1,16,-1
 103 100 l 1,17,-1
 45 177 l 1,12,-1
441 521 m 1,18,-1
 446 650 l 1,19,-1
 502 718 l 1,20,-1
 574 647 l 1,21,-1
 577 512 l 1,22,-1
 518 445 l 1,23,-1
 441 521 l 1,18,-1
550 144 m 1,24,-1
 601 87 l 1,25,-1
 601 9 l 1,26,-1
 507 8 l 1,27,-1
 478 40 l 1,28,-1
 441 0 l 1,29,-1
 189 0 l 1,30,-1
 129 58 l 1,31,-1
 195 123 l 1,32,-1
 399 126 l 1,33,-1
 378 149 l 1,34,-1
 374 245 l 1,35,-1
 459 244 l 1,36,-1
 459 331 l 1,37,-1
 514 398 l 1,38,-1
 587 328 l 1,39,-1
 589 193 l 1,40,-1
 550 144 l 1,24,-1
EndSplineSet
Validated: 1
EndChar

StartChar: r
Encoding: 114 114 85
Width: 640
GlyphClass: 2
Flags: W
LayerCount: 2
Fore
SplineSet
482 27 m 1,0,-1
 210 226 l 1,1,-1
 205 321 l 1,2,-1
 289 325 l 1,3,-1
 567 114 l 1,4,-1
 568 27 l 1,5,-1
 482 27 l 1,0,-1
441 521 m 1,6,-1
 446 650 l 1,7,-1
 502 718 l 1,8,-1
 574 647 l 1,9,-1
 577 512 l 1,10,-1
 518 445 l 1,11,-1
 441 521 l 1,6,-1
45 100 m 1,12,-1
 44 331 l 1,13,-1
 99 398 l 1,14,-1
 172 328 l 1,15,-1
 174 91 l 1,16,-1
 103 24 l 1,17,-1
 45 100 l 1,12,-1
185 805 m 1,18,-1
 399 807 l 1,19,-1
 473 745 l 1,20,-1
 413 681 l 1,21,-1
 179 682 l 1,22,-1
 114 740 l 1,23,-1
 185 805 l 1,18,-1
212 494 m 1,24,-1
 413 494 l 1,25,-1
 483 427 l 1,26,-1
 426 357 l 1,27,-1
 206 360 l 1,28,-1
 144 423 l 1,29,-1
 212 494 l 1,24,-1
43 501 m 1,30,-1
 40 630 l 1,31,-1
 101 713 l 1,32,-1
 166 645 l 1,33,-1
 168 515 l 1,34,-1
 102 450 l 1,35,-1
 43 501 l 1,30,-1
EndSplineSet
Validated: 1
EndChar

StartChar: s
Encoding: 115 115 86
Width: 640
GlyphClass: 2
Flags: W
LayerCount: 2
Fore
SplineSet
185 805 m 1,0,-1
 517 810 l 1,1,-1
 590 749 l 1,2,-1
 530 684 l 1,3,-1
 179 682 l 1,4,-1
 114 740 l 1,5,-1
 185 805 l 1,0,-1
212 494 m 1,6,-1
 394 494 l 1,7,-1
 465 427 l 1,8,-1
 407 357 l 1,9,-1
 206 360 l 1,10,-1
 144 423 l 1,11,-1
 212 494 l 1,6,-1
43 501 m 1,12,-1
 40 630 l 1,13,-1
 101 713 l 1,14,-1
 166 645 l 1,15,-1
 168 515 l 1,16,-1
 102 450 l 1,17,-1
 43 501 l 1,12,-1
460 177 m 1,18,-1
 459 331 l 1,19,-1
 514 398 l 1,20,-1
 587 328 l 1,21,-1
 589 193 l 1,22,-1
 530 119 l 1,23,-1
 460 177 l 1,18,-1
118 123 m 1,24,-1
 428 126 l 1,25,-1
 501 64 l 1,26,-1
 441 0 l 1,27,-1
 113 0 l 1,28,-1
 47 58 l 1,29,-1
 118 123 l 1,24,-1
EndSplineSet
Validated: 1
EndChar

StartChar: t
Encoding: 116 116 87
Width: 640
GlyphClass: 2
Flags: W
LayerCount: 2
Fore
SplineSet
248 90 m 1,0,-1
 249 245 l 1,1,-1
 310 328 l 1,2,-1
 375 260 l 1,3,-1
 371 84 l 1,4,-1
 312 10 l 1,5,-1
 248 90 l 1,0,-1
94 787 m 1,6,-1
 531 784 l 1,7,-1
 601 717 l 1,8,-1
 544 647 l 1,9,-1
 374 649 l 1,10,-1
 372 457 l 1,11,-1
 313 383 l 1,12,-1
 249 463 l 1,13,-1
 249 651 l 1,14,-1
 88 653 l 1,15,-1
 26 717 l 1,16,-1
 94 787 l 1,6,-1
EndSplineSet
Validated: 1
EndChar

StartChar: u
Encoding: 117 117 88
Width: 640
GlyphClass: 2
Flags: W
LayerCount: 2
Fore
SplineSet
187 303 m 1,0,-1
 182 174 l 1,1,-1
 127 106 l 1,2,-1
 54 177 l 1,3,-1
 52 312 l 1,4,-1
 111 379 l 1,5,-1
 187 303 l 1,0,-1
587 727 m 1,6,-1
 585 494 l 1,7,-1
 529 426 l 1,8,-1
 457 497 l 1,9,-1
 458 736 l 1,10,-1
 528 804 l 1,11,-1
 587 727 l 1,6,-1
444 19 m 1,12,-1
 230 17 l 1,13,-1
 156 79 l 1,14,-1
 216 143 l 1,15,-1
 450 142 l 1,16,-1
 515 84 l 1,17,-1
 444 19 l 1,12,-1
586 324 m 1,18,-1
 589 194 l 1,19,-1
 527 112 l 1,20,-1
 463 179 l 1,21,-1
 461 309 l 1,22,-1
 526 375 l 1,23,-1
 586 324 l 1,18,-1
169 748 m 1,24,-1
 170 494 l 1,25,-1
 115 426 l 1,26,-1
 42 497 l 1,27,-1
 40 733 l 1,28,-1
 98 807 l 1,29,-1
 169 748 l 1,24,-1
EndSplineSet
Validated: 1
EndChar

StartChar: v
Encoding: 118 118 89
Width: 640
GlyphClass: 2
Flags: W
LayerCount: 2
Fore
SplineSet
182 92 m 1,0,-1
 483 377 l 1,1,-1
 579 384 l 1,2,-1
 581 296 l 1,3,-1
 263 0 l 1,4,-1
 176 -4 l 1,5,-1
 182 92 l 1,0,-1
187 303 m 1,6,-1
 180 110 l 1,7,-1
 125 42 l 1,8,-1
 52 113 l 1,9,-1
 52 312 l 1,10,-1
 111 379 l 1,11,-1
 187 303 l 1,6,-1
587 727 m 1,12,-1
 585 494 l 1,13,-1
 529 426 l 1,14,-1
 457 497 l 1,15,-1
 458 736 l 1,16,-1
 528 804 l 1,17,-1
 587 727 l 1,12,-1
169 748 m 1,18,-1
 170 494 l 1,19,-1
 115 426 l 1,20,-1
 42 497 l 1,21,-1
 40 733 l 1,22,-1
 98 807 l 1,23,-1
 169 748 l 1,18,-1
EndSplineSet
Validated: 1
EndChar

StartChar: w
Encoding: 119 119 90
Width: 640
GlyphClass: 2
Flags: W
LayerCount: 2
Fore
SplineSet
383 414 m 1,0,-1
 385 196 l 1,1,-1
 257 199 l 1,2,-1
 254 398 l 1,3,-1
 312 472 l 1,4,-1
 383 414 l 1,0,-1
186 294 m 1,5,-1
 181 165 l 1,6,-1
 126 97 l 1,7,-1
 53 168 l 1,8,-1
 51 303 l 1,9,-1
 110 370 l 1,10,-1
 186 294 l 1,5,-1
579 718 m 1,11,-1
 584 484 l 1,12,-1
 528 417 l 1,13,-1
 456 487 l 1,14,-1
 450 727 l 1,15,-1
 521 795 l 1,16,-1
 579 718 l 1,11,-1
443 10 m 1,17,-1
 229 8 l 1,18,-1
 155 70 l 1,19,-1
 215 134 l 1,20,-1
 449 133 l 1,21,-1
 514 75 l 1,22,-1
 443 10 l 1,17,-1
585 314 m 1,23,-1
 588 185 l 1,24,-1
 526 102 l 1,25,-1
 462 170 l 1,26,-1
 460 300 l 1,27,-1
 525 366 l 1,28,-1
 585 314 l 1,23,-1
169 748 m 1,29,-1
 169 484 l 1,30,-1
 114 417 l 1,31,-1
 41 487 l 1,32,-1
 40 733 l 1,33,-1
 98 807 l 1,34,-1
 169 748 l 1,29,-1
EndSplineSet
Validated: 1
EndChar

StartChar: x
Encoding: 120 120 91
Width: 640
GlyphClass: 2
Flags: W
LayerCount: 2
Fore
SplineSet
291 565 m 1,0,-1
 293 438 l 1,1,-1
 206 432 l 1,2,-1
 47 640 l 1,3,-1
 49 768 l 1,4,-1
 150 770 l 1,5,-1
 291 565 l 1,0,-1
47 133 m 1,6,-1
 198 338 l 1,7,-1
 299 338 l 1,8,-1
 299 221 l 1,9,-1
 135 0 l 1,10,-1
 49 0 l 1,11,-1
 47 133 l 1,6,-1
353 210 m 1,12,-1
 352 342 l 1,13,-1
 438 343 l 1,14,-1
 597 135 l 1,15,-1
 600 0 l 1,16,-1
 506 0 l 1,17,-1
 353 210 l 1,12,-1
589 629 m 1,18,-1
 447 437 l 1,19,-1
 352 440 l 1,20,-1
 346 554 l 1,21,-1
 508 780 l 1,22,-1
 592 780 l 1,23,-1
 589 629 l 1,18,-1
EndSplineSet
Validated: 1
EndChar

StartChar: y
Encoding: 121 121 92
Width: 640
GlyphClass: 2
Flags: W
LayerCount: 2
Fore
SplineSet
441 521 m 1,0,-1
 445 723 l 1,1,-1
 501 791 l 1,2,-1
 573 720 l 1,3,-1
 577 512 l 1,4,-1
 518 445 l 1,5,-1
 441 521 l 1,0,-1
212 494 m 1,6,-1
 413 494 l 1,7,-1
 483 427 l 1,8,-1
 426 357 l 1,9,-1
 206 360 l 1,10,-1
 144 423 l 1,11,-1
 212 494 l 1,6,-1
43 501 m 1,12,-1
 39 702 l 1,13,-1
 100 785 l 1,14,-1
 165 718 l 1,15,-1
 168 515 l 1,16,-1
 102 450 l 1,17,-1
 43 501 l 1,12,-1
460 177 m 1,18,-1
 459 331 l 1,19,-1
 514 398 l 1,20,-1
 587 328 l 1,21,-1
 589 193 l 1,22,-1
 530 119 l 1,23,-1
 460 177 l 1,18,-1
195 123 m 1,24,-1
 428 126 l 1,25,-1
 501 64 l 1,26,-1
 441 0 l 1,27,-1
 189 0 l 1,28,-1
 129 58 l 1,29,-1
 195 123 l 1,24,-1
EndSplineSet
Validated: 1
EndChar

StartChar: z
Encoding: 122 122 93
Width: 640
GlyphClass: 2
Flags: W
LayerCount: 2
Fore
SplineSet
342 509 m 1,0,-1
 505 647 l 1,1,-1
 600 654 l 1,2,-1
 602 566 l 1,3,-1
 424 417 l 1,4,-1
 336 413 l 1,5,-1
 342 509 l 1,0,-1
30 247 m 1,6,-1
 220 396 l 1,7,-1
 316 403 l 1,8,-1
 317 315 l 1,9,-1
 111 155 l 1,10,-1
 24 151 l 1,11,-1
 30 247 l 1,6,-1
541 805 m 1,12,-1
 612 740 l 1,13,-1
 547 682 l 1,14,-1
 90 681 l 1,15,-1
 30 745 l 1,16,-1
 104 807 l 1,17,-1
 541 805 l 1,12,-1
537 123 m 1,18,-1
 608 58 l 1,19,-1
 543 0 l 1,20,-1
 85 0 l 1,21,-1
 25 64 l 1,22,-1
 99 126 l 1,23,-1
 537 123 l 1,18,-1
EndSplineSet
Validated: 1
EndChar

StartChar: braceleft
Encoding: 123 123 94
Width: 640
GlyphClass: 2
Flags: W
LayerCount: 2
Fore
SplineSet
61 488 m 1,0,-1
 97 489 l 1,1,-1
 167 422 l 1,2,-1
 110 351 l 1,3,-1
 56 354 l 1,4,-1
 -7 417 l 1,5,-1
 61 488 l 1,0,-1
131 177 m 1,6,-1
 130 331 l 1,7,-1
 186 398 l 1,8,-1
 258 328 l 1,9,-1
 260 168 l 1,10,-1
 190 100 l 1,11,-1
 131 177 l 1,6,-1
271 805 m 1,12,-1
 412 807 l 1,13,-1
 486 745 l 1,14,-1
 426 681 l 1,15,-1
 265 682 l 1,16,-1
 200 740 l 1,17,-1
 271 805 l 1,12,-1
129 501 m 1,18,-1
 126 630 l 1,19,-1
 188 713 l 1,20,-1
 252 645 l 1,21,-1
 254 515 l 1,22,-1
 188 450 l 1,23,-1
 129 501 l 1,18,-1
281 123 m 1,24,-1
 418 126 l 1,25,-1
 492 64 l 1,26,-1
 432 0 l 1,27,-1
 275 0 l 1,28,-1
 215 58 l 1,29,-1
 281 123 l 1,24,-1
EndSplineSet
Validated: 1
EndChar

StartChar: bar
Encoding: 124 124 95
Width: 640
GlyphClass: 2
Flags: W
LayerCount: 2
Fore
SplineSet
269 768 m 1,0,-1
 344 768 l 1,1,-1
 344 0 l 1,2,-1
 269 0 l 1,3,-1
 269 768 l 1,0,-1
EndSplineSet
Validated: 1
EndChar

StartChar: braceright
Encoding: 125 125 96
Width: 640
GlyphClass: 2
Flags: W
LayerCount: 2
Fore
SplineSet
516 459 m 1,0,-1
 561 460 l 1,1,-1
 631 393 l 1,2,-1
 574 322 l 1,3,-1
 511 325 l 1,4,-1
 451 384 l 1,5,-1
 516 459 l 1,0,-1
487 630 m 1,6,-1
 488 476 l 1,7,-1
 433 409 l 1,8,-1
 360 479 l 1,9,-1
 358 639 l 1,10,-1
 429 706 l 1,11,-1
 487 630 l 1,6,-1
347 2 m 1,12,-1
 203 0 l 1,13,-1
 129 61 l 1,14,-1
 189 126 l 1,15,-1
 353 125 l 1,16,-1
 418 67 l 1,17,-1
 347 2 l 1,12,-1
489 306 m 1,18,-1
 492 177 l 1,19,-1
 431 94 l 1,20,-1
 366 162 l 1,21,-1
 364 292 l 1,22,-1
 430 357 l 1,23,-1
 489 306 l 1,18,-1
337 684 m 1,24,-1
 200 681 l 1,25,-1
 126 742 l 1,26,-1
 186 807 l 1,27,-1
 343 807 l 1,28,-1
 403 749 l 1,29,-1
 337 684 l 1,24,-1
EndSplineSet
Validated: 1
EndChar

StartChar: asciitilde
Encoding: 126 126 97
Width: 640
GlyphClass: 2
Flags: W
LayerCount: 2
Fore
SplineSet
533 482 m 1,0,-1
 592 482 l 1,1,-1
 591 418 l 1,2,-1
 494 314 l 1,3,-1
 436 315 l 1,4,-1
 436 378 l 1,5,-1
 533 482 l 1,0,-1
151 483 m 1,6,-1
 209 483 l 1,7,-1
 208 420 l 1,8,-1
 111 315 l 1,9,-1
 53 316 l 1,10,-1
 53 376 l 1,11,-1
 151 483 l 1,6,-1
338 316 m 1,12,-1
 246 421 l 1,13,-1
 246 481 l 1,14,-1
 303 481 l 1,15,-1
 398 376 l 1,16,-1
 401 316 l 1,17,-1
 338 316 l 1,12,-1
EndSplineSet
Validated: 1
EndChar

StartChar: Euro
Encoding: 8364 8364 98
Width: 640
GlyphClass: 2
Flags: W
LayerCount: 2
Fore
SplineSet
281 123 m 1,0,-1
 514 126 l 1,1,-1
 587 64 l 1,2,-1
 527 0 l 1,3,-1
 275 0 l 1,4,-1
 215 58 l 1,5,-1
 281 123 l 1,0,-1
271 805 m 1,6,-1
 485 807 l 1,7,-1
 559 745 l 1,8,-1
 499 681 l 1,9,-1
 265 682 l 1,10,-1
 200 740 l 1,11,-1
 271 805 l 1,6,-1
234 495 m 1,12,-1
 188 450 l 1,13,-1
 135 495 l 1,14,-1
 75 495 l 1,15,-1
 17 549 l 1,16,-1
 80 609 l 1,17,-1
 127 609 l 1,18,-1
 126 630 l 1,19,-1
 188 713 l 1,20,-1
 252 645 l 1,21,-1
 253 610 l 1,22,-1
 463 610 l 1,23,-1
 528 554 l 1,24,-1
 475 494 l 1,25,-1
 234 495 l 1,12,-1
131 203 m 1,26,-1
 78 204 l 1,27,-1
 20 257 l 1,28,-1
 83 317 l 1,29,-1
 130 317 l 1,30,-1
 130 331 l 1,31,-1
 186 398 l 1,32,-1
 258 328 l 1,33,-1
 258 318 l 1,34,-1
 361 318 l 1,35,-1
 427 262 l 1,36,-1
 374 202 l 1,37,-1
 260 203 l 1,38,-1
 260 168 l 1,39,-1
 190 100 l 1,40,-1
 131 177 l 1,41,-1
 131 203 l 1,26,-1
EndSplineSet
Validated: 1
EndChar

StartChar: ellipsis
Encoding: 8230 8230 99
Width: 640
GlyphClass: 2
Flags: W
LayerCount: 2
Fore
SplineSet
445 123 m 1,0,-1
 569 123 l 1,1,-1
 569 -1 l 1,2,-1
 445 -1 l 1,3,-1
 445 123 l 1,0,-1
43 123 m 1,4,-1
 167 123 l 1,5,-1
 167 -1 l 1,6,-1
 43 -1 l 1,7,-1
 43 123 l 1,4,-1
247 124 m 1,8,-1
 371 124 l 1,9,-1
 371 0 l 1,10,-1
 247 0 l 1,11,-1
 247 124 l 1,8,-1
EndSplineSet
Validated: 1
EndChar

StartChar: circumflex
Encoding: 710 710 100
Width: 640
GlyphClass: 2
Flags: W
LayerCount: 2
Fore
SplineSet
210 762 m 1,0,-1
 298 762 l 1,1,-1
 296 669 l 1,2,-1
 150 516 l 1,3,-1
 62 518 l 1,4,-1
 69 614 l 1,5,-1
 210 762 l 1,0,-1
492 524 m 1,6,-1
 354 671 l 1,7,-1
 353 759 l 1,8,-1
 440 758 l 1,9,-1
 584 605 l 1,10,-1
 587 518 l 1,11,-1
 492 524 l 1,6,-1
EndSplineSet
Validated: 1
EndChar

StartChar: guilsinglleft
Encoding: 8249 8249 101
Width: 640
GlyphClass: 2
Flags: W
LayerCount: 2
Fore
SplineSet
182 136 m 1,0,-1
 176 232 l 1,1,-1
 263 228 l 1,2,-1
 416 84 l 1,3,-1
 414 -4 l 1,4,-1
 319 3 l 1,5,-1
 182 136 l 1,0,-1
409 426 m 1,6,-1
 271 293 l 1,7,-1
 176 286 l 1,8,-1
 174 374 l 1,9,-1
 327 518 l 1,10,-1
 415 521 l 1,11,-1
 409 426 l 1,6,-1
EndSplineSet
Validated: 1
EndChar

StartChar: quoteleft
Encoding: 8216 8216 102
Width: 640
GlyphClass: 2
Flags: W
LayerCount: 2
Fore
SplineSet
248 538 m 1,0,-1
 248 729 l 1,1,-1
 309 803 l 1,2,-1
 374 743 l 1,3,-1
 371 533 l 1,4,-1
 312 467 l 1,5,-1
 248 538 l 1,0,-1
EndSplineSet
Validated: 1
EndChar

StartChar: quoteright
Encoding: 8217 8217 103
Width: 640
GlyphClass: 2
Flags: W
LayerCount: 2
Fore
SplineSet
248 538 m 1,0,-1
 248 729 l 1,1,-1
 309 803 l 1,2,-1
 374 743 l 1,3,-1
 371 533 l 1,4,-1
 312 467 l 1,5,-1
 248 538 l 1,0,-1
EndSplineSet
Validated: 1
EndChar

StartChar: quotedblleft
Encoding: 8220 8220 104
Width: 640
GlyphClass: 2
Flags: W
LayerCount: 2
Fore
SplineSet
163 557 m 1,0,-1
 163 748 l 1,1,-1
 224 821 l 1,2,-1
 289 761 l 1,3,-1
 286 551 l 1,4,-1
 227 486 l 1,5,-1
 163 557 l 1,0,-1
374 552 m 1,6,-1
 374 743 l 1,7,-1
 435 816 l 1,8,-1
 500 756 l 1,9,-1
 497 546 l 1,10,-1
 438 481 l 1,11,-1
 374 552 l 1,6,-1
EndSplineSet
Validated: 1
EndChar

StartChar: quotedblright
Encoding: 8221 8221 105
Width: 640
GlyphClass: 2
Flags: W
LayerCount: 2
Fore
SplineSet
163 557 m 1,0,-1
 163 748 l 1,1,-1
 224 821 l 1,2,-1
 289 761 l 1,3,-1
 286 551 l 1,4,-1
 227 486 l 1,5,-1
 163 557 l 1,0,-1
374 552 m 1,6,-1
 374 743 l 1,7,-1
 435 816 l 1,8,-1
 500 756 l 1,9,-1
 497 546 l 1,10,-1
 438 481 l 1,11,-1
 374 552 l 1,6,-1
EndSplineSet
Validated: 1
EndChar

StartChar: bullet
Encoding: 8226 8226 106
Width: 640
GlyphClass: 2
Flags: W
LayerCount: 2
Fore
SplineSet
108 378 m 128,-1,1
 108 462 108 462 167 521.5 c 128,-1,2
 226 581 226 581 310 581 c 128,-1,3
 394 581 394 581 453.5 521.5 c 128,-1,4
 513 462 513 462 513 378 c 128,-1,5
 513 294 513 294 453.5 234.5 c 128,-1,6
 394 175 394 175 310 175 c 128,-1,7
 226 175 226 175 167 234.5 c 128,-1,0
 108 294 108 294 108 378 c 128,-1,1
EndSplineSet
Validated: 1
EndChar

StartChar: endash
Encoding: 8211 8211 107
Width: 640
GlyphClass: 2
Flags: W
LayerCount: 2
Fore
SplineSet
97 459 m 1,0,-1
 535 456 l 1,1,-1
 605 389 l 1,2,-1
 548 318 l 1,3,-1
 92 325 l 1,4,-1
 29 388 l 1,5,-1
 97 459 l 1,0,-1
EndSplineSet
Validated: 1
EndChar

StartChar: emdash
Encoding: 8212 8212 108
Width: 640
GlyphClass: 2
Flags: W
LayerCount: 2
Fore
SplineSet
97 459 m 1,0,-1
 535 456 l 1,1,-1
 605 389 l 1,2,-1
 548 318 l 1,3,-1
 92 325 l 1,4,-1
 29 388 l 1,5,-1
 97 459 l 1,0,-1
EndSplineSet
Validated: 1
EndChar

StartChar: trademark
Encoding: 8482 8482 109
Width: 640
GlyphClass: 2
Flags: W
LayerCount: 2
Fore
SplineSet
434 597 m 1,0,-1
 433 701 l 1,1,-1
 499 699 l 1,2,-1
 500 604 l 1,3,-1
 470 569 l 1,4,-1
 434 597 l 1,0,-1
535 654 m 1,5,-1
 538 716 l 1,6,-1
 566 748 l 1,7,-1
 604 714 l 1,8,-1
 605 649 l 1,9,-1
 575 618 l 1,10,-1
 535 654 l 1,5,-1
333 451 m 1,11,-1
 330 563 l 1,12,-1
 359 595 l 1,13,-1
 396 561 l 1,14,-1
 399 447 l 1,15,-1
 363 414 l 1,16,-1
 333 451 l 1,11,-1
403 790 m 1,17,-1
 513 791 l 1,18,-1
 551 761 l 1,19,-1
 520 730 l 1,20,-1
 400 731 l 1,21,-1
 366 759 l 1,22,-1
 403 790 l 1,17,-1
330 644 m 1,23,-1
 328 706 l 1,24,-1
 360 746 l 1,25,-1
 393 713 l 1,26,-1
 394 651 l 1,27,-1
 360 620 l 1,28,-1
 330 644 l 1,23,-1
544 436 m 1,29,-1
 544 563 l 1,30,-1
 573 595 l 1,31,-1
 610 561 l 1,32,-1
 611 444 l 1,33,-1
 581 408 l 1,34,-1
 544 436 l 1,29,-1
143 451 m 1,35,-1
 143 525 l 1,36,-1
 175 565 l 1,37,-1
 208 532 l 1,38,-1
 206 448 l 1,39,-1
 176 413 l 1,40,-1
 143 451 l 1,35,-1
63 785 m 1,41,-1
 288 783 l 1,42,-1
 325 751 l 1,43,-1
 295 718 l 1,44,-1
 208 719 l 1,45,-1
 207 626 l 1,46,-1
 176 591 l 1,47,-1
 143 629 l 1,48,-1
 143 720 l 1,49,-1
 61 721 l 1,50,-1
 28 751 l 1,51,-1
 63 785 l 1,41,-1
EndSplineSet
Validated: 1
EndChar

StartChar: guilsinglright
Encoding: 8250 8250 110
Width: 640
GlyphClass: 2
Flags: W
LayerCount: 2
Fore
SplineSet
409 381 m 1,0,-1
 415 286 l 1,1,-1
 327 289 l 1,2,-1
 174 433 l 1,3,-1
 176 521 l 1,4,-1
 271 514 l 1,5,-1
 409 381 l 1,0,-1
182 92 m 1,6,-1
 319 225 l 1,7,-1
 414 232 l 1,8,-1
 416 144 l 1,9,-1
 263 0 l 1,10,-1
 176 -4 l 1,11,-1
 182 92 l 1,6,-1
EndSplineSet
Validated: 1
EndChar

StartChar: exclamdown
Encoding: 161 161 111
Width: 640
GlyphClass: 2
Flags: W
LayerCount: 2
Fore
SplineSet
374 688 m 1,0,-1
 245 688 l 1,1,-1
 245 803 l 1,2,-1
 374 803 l 1,3,-1
 374 688 l 1,0,-1
368 605 m 1,4,-1
 368 414 l 1,5,-1
 306 341 l 1,6,-1
 242 401 l 1,7,-1
 245 611 l 1,8,-1
 303 676 l 1,9,-1
 368 605 l 1,4,-1
368 221 m 1,10,-1
 368 30 l 1,11,-1
 306 -44 l 1,12,-1
 242 16 l 1,13,-1
 245 226 l 1,14,-1
 303 292 l 1,15,-1
 368 221 l 1,10,-1
EndSplineSet
Validated: 1
EndChar

StartChar: copyright
Encoding: 169 169 112
Width: 640
GlyphClass: 2
Flags: W
LayerCount: 2
Fore
SplineSet
75 402 m 0,0,1
 75 251 75 251 148 147.5 c 128,-1,2
 221 44 221 44 319 44 c 128,-1,3
 417 44 417 44 490.5 147.5 c 128,-1,4
 564 251 564 251 564 402 c 128,-1,5
 564 553 564 553 490.5 657 c 128,-1,6
 417 761 417 761 319 761 c 128,-1,7
 221 761 221 761 148 657.5 c 128,-1,8
 75 554 75 554 75 402 c 0,0,1
24 402 m 128,-1,10
 24 511 24 511 61.5 604.5 c 128,-1,11
 99 698 99 698 167.5 755 c 128,-1,12
 236 812 236 812 319 812 c 128,-1,13
 402 812 402 812 470.5 755 c 128,-1,14
 539 698 539 698 577 604 c 128,-1,15
 615 510 615 510 615 402 c 0,16,17
 615 235 615 235 530 114 c 128,-1,18
 445 -7 445 -7 319 -7 c 0,19,20
 236 -7 236 -7 167.5 49.5 c 128,-1,21
 99 106 99 106 61.5 199.5 c 128,-1,9
 24 293 24 293 24 402 c 128,-1,10
166 264 m 1,22,-1
 165 362 l 1,23,-1
 201 405 l 1,24,-1
 247 360 l 1,25,-1
 248 258 l 1,26,-1
 203 215 l 1,27,-1
 166 264 l 1,22,-1
255 666 m 1,28,-1
 392 667 l 1,29,-1
 439 628 l 1,30,-1
 401 586 l 1,31,-1
 252 587 l 1,32,-1
 210 624 l 1,33,-1
 255 666 l 1,28,-1
164 471 m 1,34,-1
 162 554 l 1,35,-1
 202 607 l 1,36,-1
 243 563 l 1,37,-1
 244 480 l 1,38,-1
 202 438 l 1,39,-1
 164 471 l 1,34,-1
262 229 m 1,40,-1
 411 231 l 1,41,-1
 458 192 l 1,42,-1
 419 151 l 1,43,-1
 258 151 l 1,44,-1
 219 188 l 1,45,-1
 262 229 l 1,40,-1
EndSplineSet
Validated: 1
EndChar

StartChar: guillemotleft
Encoding: 171 171 113
Width: 640
GlyphClass: 2
Flags: W
LayerCount: 2
Fore
SplineSet
68 140 m 1,0,-1
 62 236 l 1,1,-1
 150 232 l 1,2,-1
 303 88 l 1,3,-1
 301 0 l 1,4,-1
 205 7 l 1,5,-1
 68 140 l 1,0,-1
295 429 m 1,6,-1
 158 296 l 1,7,-1
 62 289 l 1,8,-1
 61 377 l 1,9,-1
 214 521 l 1,10,-1
 301 525 l 1,11,-1
 295 429 l 1,6,-1
329 136 m 1,12,-1
 323 232 l 1,13,-1
 411 228 l 1,14,-1
 564 84 l 1,15,-1
 562 -4 l 1,16,-1
 466 3 l 1,17,-1
 329 136 l 1,12,-1
556 426 m 1,18,-1
 419 293 l 1,19,-1
 323 286 l 1,20,-1
 322 374 l 1,21,-1
 475 518 l 1,22,-1
 562 521 l 1,23,-1
 556 426 l 1,18,-1
EndSplineSet
Validated: 1
EndChar

StartChar: registered
Encoding: 174 174 114
Width: 640
GlyphClass: 2
Flags: W
LayerCount: 2
Fore
SplineSet
421 167 m 1,0,-1
 257 298 l 1,1,-1
 254 360 l 1,2,-1
 305 362 l 1,3,-1
 473 225 l 1,4,-1
 473 167 l 1,5,-1
 421 167 l 1,0,-1
397 491 m 1,6,-1
 400 575 l 1,7,-1
 433 619 l 1,8,-1
 477 573 l 1,9,-1
 478 485 l 1,10,-1
 443 441 l 1,11,-1
 397 491 l 1,6,-1
158 216 m 1,12,-1
 157 366 l 1,13,-1
 191 410 l 1,14,-1
 234 364 l 1,15,-1
 236 210 l 1,16,-1
 193 165 l 1,17,-1
 158 216 l 1,12,-1
242 676 m 1,18,-1
 371 677 l 1,19,-1
 416 637 l 1,20,-1
 379 595 l 1,21,-1
 239 596 l 1,22,-1
 199 634 l 1,23,-1
 242 676 l 1,18,-1
258 473 m 1,24,-1
 380 473 l 1,25,-1
 422 429 l 1,26,-1
 387 383 l 1,27,-1
 255 385 l 1,28,-1
 217 427 l 1,29,-1
 258 473 l 1,24,-1
156 477 m 1,30,-1
 155 562 l 1,31,-1
 192 616 l 1,32,-1
 231 572 l 1,33,-1
 232 487 l 1,34,-1
 192 444 l 1,35,-1
 156 477 l 1,30,-1
75 402 m 0,36,37
 75 251 75 251 148 147.5 c 128,-1,38
 221 44 221 44 319 44 c 128,-1,39
 417 44 417 44 490.5 147.5 c 128,-1,40
 564 251 564 251 564 402 c 128,-1,41
 564 553 564 553 490.5 657 c 128,-1,42
 417 761 417 761 319 761 c 128,-1,43
 221 761 221 761 148 657.5 c 128,-1,44
 75 554 75 554 75 402 c 0,36,37
24 402 m 128,-1,46
 24 511 24 511 61.5 604.5 c 128,-1,47
 99 698 99 698 167.5 755 c 128,-1,48
 236 812 236 812 319 812 c 128,-1,49
 402 812 402 812 470.5 755 c 128,-1,50
 539 698 539 698 577 604 c 128,-1,51
 615 510 615 510 615 402 c 0,52,53
 615 235 615 235 530 114 c 128,-1,54
 445 -7 445 -7 319 -7 c 0,55,56
 236 -7 236 -7 167.5 49.5 c 128,-1,57
 99 106 99 106 61.5 199.5 c 128,-1,45
 24 293 24 293 24 402 c 128,-1,46
EndSplineSet
Validated: 1
EndChar

StartChar: degree
Encoding: 176 176 115
Width: 553
GlyphClass: 2
Flags: W
LayerCount: 2
Fore
SplineSet
379 523 m 1,0,-1
 384 652 l 1,1,-1
 439 720 l 1,2,-1
 512 649 l 1,3,-1
 514 514 l 1,4,-1
 456 448 l 1,5,-1
 379 523 l 1,0,-1
185 805 m 1,6,-1
 337 809 l 1,7,-1
 410 748 l 1,8,-1
 350 683 l 1,9,-1
 179 682 l 1,10,-1
 114 740 l 1,11,-1
 185 805 l 1,6,-1
212 494 m 1,12,-1
 350 496 l 1,13,-1
 421 429 l 1,14,-1
 363 359 l 1,15,-1
 206 360 l 1,16,-1
 144 423 l 1,17,-1
 212 494 l 1,12,-1
43 501 m 1,18,-1
 40 630 l 1,19,-1
 101 713 l 1,20,-1
 166 645 l 1,21,-1
 168 515 l 1,22,-1
 102 450 l 1,23,-1
 43 501 l 1,18,-1
EndSplineSet
Validated: 1
EndChar

StartChar: acute
Encoding: 180 180 116
Width: 640
GlyphClass: 2
Flags: W
LayerCount: 2
Fore
SplineSet
188 620 m 1,0,-1
 325 753 l 1,1,-1
 420 754 l 1,2,-1
 422 672 l 1,3,-1
 269 528 l 1,4,-1
 182 525 l 1,5,-1
 188 620 l 1,0,-1
EndSplineSet
Validated: 1
EndChar

StartChar: guillemotright
Encoding: 187 187 117
Width: 640
GlyphClass: 2
Flags: W
LayerCount: 2
Fore
SplineSet
556 381 m 1,0,-1
 562 286 l 1,1,-1
 475 289 l 1,2,-1
 322 433 l 1,3,-1
 323 521 l 1,4,-1
 419 514 l 1,5,-1
 556 381 l 1,0,-1
329 92 m 1,6,-1
 466 225 l 1,7,-1
 562 232 l 1,8,-1
 564 144 l 1,9,-1
 411 0 l 1,10,-1
 323 -4 l 1,11,-1
 329 92 l 1,6,-1
295 385 m 1,12,-1
 301 289 l 1,13,-1
 214 293 l 1,14,-1
 61 437 l 1,15,-1
 62 525 l 1,16,-1
 158 518 l 1,17,-1
 295 385 l 1,12,-1
68 96 m 1,18,-1
 205 229 l 1,19,-1
 301 236 l 1,20,-1
 303 148 l 1,21,-1
 150 4 l 1,22,-1
 62 0 l 1,23,-1
 68 96 l 1,18,-1
EndSplineSet
Validated: 1
EndChar

StartChar: questiondown
Encoding: 191 191 118
Width: 640
GlyphClass: 2
Flags: W
LayerCount: 2
Fore
SplineSet
589 687 m 1,0,-1
 461 687 l 1,1,-1
 461 807 l 1,2,-1
 589 807 l 1,3,-1
 589 687 l 1,0,-1
184 -13 m 1,4,-1
 113 51 l 1,5,-1
 178 110 l 1,6,-1
 412 111 l 1,7,-1
 472 46 l 1,8,-1
 398 -15 l 1,9,-1
 184 -13 l 1,4,-1
211 298 m 1,10,-1
 143 368 l 1,11,-1
 205 432 l 1,12,-1
 406 435 l 1,13,-1
 464 365 l 1,14,-1
 393 298 l 1,15,-1
 211 298 l 1,10,-1
42 291 m 1,16,-1
 101 342 l 1,17,-1
 167 276 l 1,18,-1
 165 146 l 1,19,-1
 100 79 l 1,20,-1
 39 162 l 1,21,-1
 42 291 l 1,16,-1
459 614 m 1,22,-1
 529 673 l 1,23,-1
 588 599 l 1,24,-1
 586 464 l 1,25,-1
 513 393 l 1,26,-1
 458 461 l 1,27,-1
 459 614 l 1,22,-1
EndSplineSet
Validated: 1
EndChar

StartChar: Ccedilla
Encoding: 199 199 119
Width: 640
GlyphClass: 2
Flags: W
LayerCount: 2
Fore
SplineSet
195 123 m 1,0,-1
 428 126 l 1,1,-1
 501 64 l 1,2,-1
 441 0 l 1,3,-1
 393 0 l 1,4,-1
 242 -142 l 1,5,-1
 154 -146 l 1,6,-1
 160 -50 l 1,7,-1
 212 0 l 1,8,-1
 189 0 l 1,9,-1
 129 58 l 1,10,-1
 195 123 l 1,0,-1
43 501 m 1,11,-1
 40 630 l 1,12,-1
 101 713 l 1,13,-1
 166 645 l 1,14,-1
 168 515 l 1,15,-1
 102 450 l 1,16,-1
 43 501 l 1,11,-1
185 805 m 1,17,-1
 399 807 l 1,18,-1
 473 745 l 1,19,-1
 413 681 l 1,20,-1
 179 682 l 1,21,-1
 114 740 l 1,22,-1
 185 805 l 1,17,-1
45 177 m 1,23,-1
 44 331 l 1,24,-1
 99 398 l 1,25,-1
 172 328 l 1,26,-1
 174 168 l 1,27,-1
 103 100 l 1,28,-1
 45 177 l 1,23,-1
EndSplineSet
Validated: 1
EndChar

StartChar: multiply
Encoding: 215 215 120
Width: 640
GlyphClass: 2
Flags: W
LayerCount: 2
Fore
SplineSet
292 513 m 1,0,-1
 298 417 l 1,1,-1
 211 421 l 1,2,-1
 58 565 l 1,3,-1
 59 653 l 1,4,-1
 155 646 l 1,5,-1
 292 513 l 1,0,-1
65 224 m 1,6,-1
 202 357 l 1,7,-1
 298 364 l 1,8,-1
 300 276 l 1,9,-1
 147 132 l 1,10,-1
 59 128 l 1,11,-1
 65 224 l 1,6,-1
352 268 m 1,12,-1
 346 364 l 1,13,-1
 433 360 l 1,14,-1
 586 216 l 1,15,-1
 585 128 l 1,16,-1
 489 135 l 1,17,-1
 352 268 l 1,12,-1
579 557 m 1,18,-1
 442 424 l 1,19,-1
 346 417 l 1,20,-1
 344 505 l 1,21,-1
 497 649 l 1,22,-1
 585 653 l 1,23,-1
 579 557 l 1,18,-1
EndSplineSet
Validated: 1
EndChar

StartChar: ccedilla
Encoding: 231 231 121
Width: 640
GlyphClass: 2
Flags: W
LayerCount: 2
Fore
SplineSet
195 123 m 1,0,-1
 428 126 l 1,1,-1
 501 64 l 1,2,-1
 441 0 l 1,3,-1
 393 0 l 1,4,-1
 242 -142 l 1,5,-1
 154 -146 l 1,6,-1
 160 -50 l 1,7,-1
 212 0 l 1,8,-1
 189 0 l 1,9,-1
 129 58 l 1,10,-1
 195 123 l 1,0,-1
43 501 m 1,11,-1
 40 630 l 1,12,-1
 101 713 l 1,13,-1
 166 645 l 1,14,-1
 168 515 l 1,15,-1
 102 450 l 1,16,-1
 43 501 l 1,11,-1
185 805 m 1,17,-1
 399 807 l 1,18,-1
 473 745 l 1,19,-1
 413 681 l 1,20,-1
 179 682 l 1,21,-1
 114 740 l 1,22,-1
 185 805 l 1,17,-1
45 177 m 1,23,-1
 44 331 l 1,24,-1
 99 398 l 1,25,-1
 172 328 l 1,26,-1
 174 168 l 1,27,-1
 103 100 l 1,28,-1
 45 177 l 1,23,-1
EndSplineSet
Validated: 1
EndChar

StartChar: divide
Encoding: 247 247 122
Width: 640
GlyphClass: 2
Flags: W
LayerCount: 2
Fore
SplineSet
214 698 m 1,0,-1
 420 698 l 1,1,-1
 420 491 l 1,2,-1
 214 491 l 1,3,-1
 214 698 l 1,0,-1
214 285 m 1,4,-1
 420 285 l 1,5,-1
 420 78 l 1,6,-1
 214 78 l 1,7,-1
 214 285 l 1,4,-1
97 459 m 1,8,-1
 535 456 l 1,9,-1
 605 389 l 1,10,-1
 548 318 l 1,11,-1
 92 325 l 1,12,-1
 29 388 l 1,13,-1
 97 459 l 1,8,-1
EndSplineSet
Validated: 1
EndChar
